<svg width="342" height="342" viewBox="0 0 342 342" fill="none" xmlns="http://www.w3.org/2000/svg">
<path d="M113.967 69.0291C110.79 66.9498 108.942 66.8061 102.755 62.567C99.4991 60.0716 95.8153 58.1911 91.8845 57.0181C84.4734 54.7061 77.96 54.5369 74.4425 51.6008C72.3067 49.8207 71.8347 48.1808 66.4226 45.0635C65.1263 44.1854 63.6759 43.56 62.1476 43.2201C61.5765 43.1431 61.426 44.0169 61.862 44.2666C64.4822 45.5622 67.0038 47.0481 69.4065 48.7126C70.7951 49.7967 71.8604 51.2007 73.1891 52.3617C77.0656 55.7527 83.0421 56.0092 89.8941 57.8337C101.132 60.8279 103.403 66.129 113.612 69.826C114.121 70.0124 114.369 69.2907 113.967 69.0291Z" fill="#191919"/>
<path d="M106.12 74.6739C102.358 72.7792 97.8688 72.3243 91.8667 68.5726C86.4802 65.2056 79.24 59.0752 71.7964 58.0441C67.8241 57.4935 65.6609 59.8636 58.6089 57.8919C58.5364 57.8749 58.4602 57.8844 58.3942 57.9187C58.3281 57.953 58.2765 58.0099 58.2488 58.079C58.2211 58.1481 58.2191 58.2248 58.2431 58.2953C58.2671 58.3658 58.3156 58.4253 58.3797 58.4631C59.9334 59.3049 61.652 59.7974 63.4157 59.9063C68.5047 60.2654 70.3344 56.9993 80.673 62.8903C86.8718 66.418 92.1847 71.2693 99.0504 73.5709C100.815 74.1643 102.607 74.667 104.314 75.3955C106.005 76.1286 107.575 77.1139 108.97 78.3179C109.423 78.6086 109.909 78.0494 109.692 77.5963C108.839 76.2698 107.589 75.247 106.12 74.6739Z" fill="#191919"/>
<path d="M62.5219 54.9658C62.6142 54.9607 62.7032 54.9296 62.7787 54.8763C62.8542 54.823 62.9131 54.7495 62.9488 54.6642C62.9845 54.5789 62.9954 54.4853 62.9804 54.3941C62.9654 54.3029 62.925 54.2178 62.8639 54.1484C62.1334 53.6084 61.2621 53.2912 60.3553 53.2353C58.4194 52.8728 56.4526 52.701 54.4832 52.7223C53.4515 52.6369 52.4129 52.7142 51.4052 52.9514C51.321 52.976 51.2471 53.0272 51.1945 53.0973C51.142 53.1675 51.1135 53.2528 51.1135 53.3405C51.1135 53.4281 51.142 53.5134 51.1945 53.5836C51.2471 53.6537 51.321 53.7049 51.4052 53.7295C53.2354 53.9311 55.0753 54.0327 56.9165 54.0339C61.1146 54.357 61.2975 55.1248 62.5219 54.9658Z" fill="#191919"/>
<path d="M55.9473 49.8724C59.8615 50.1528 60.5011 50.9753 61.5527 50.5564C61.7425 50.4811 61.9306 50.2349 61.7818 50.0246C61.2586 49.2893 60.2599 49.2072 59.4237 49.0362C56.278 48.3332 53.0117 48.3724 49.8837 49.1507C49.7878 49.1791 49.7052 49.2409 49.6511 49.325C49.5969 49.4091 49.5748 49.5098 49.5886 49.6088C49.6025 49.7079 49.6515 49.7986 49.7267 49.8646C49.8019 49.9305 49.8982 49.9673 49.9982 49.9681C51.9938 49.9681 53.9518 49.7287 55.9473 49.8724Z" fill="#191919"/>
<path d="M54.7703 45.9003C57.2182 46.4064 59.6155 47.1315 61.9335 48.0668C62.5428 48.4434 63.2349 48.6653 63.9496 48.7132C64.013 48.7103 64.0746 48.6916 64.1288 48.6588C64.1831 48.626 64.2282 48.5801 64.2602 48.5254C64.2922 48.4706 64.3099 48.4087 64.3118 48.3454C64.3137 48.282 64.2997 48.2192 64.2711 48.1626C63.8147 47.5455 63.1663 47.0974 62.4277 46.8886C60.0684 45.7501 57.4841 45.1541 54.8644 45.1444C54.7747 45.1508 54.69 45.1881 54.6248 45.25C54.5596 45.3119 54.5179 45.3945 54.5068 45.4837C54.4957 45.5729 54.5159 45.6632 54.5639 45.7392C54.612 45.8152 54.685 45.8721 54.7703 45.9003Z" fill="#191919"/>
<path d="M88.4258 192.045C88.0649 191.59 87.4562 192.179 87.6648 192.635C88.523 194.375 89.1678 196.213 89.5851 198.107C89.8468 199.455 89.9271 200.117 88.6344 200.672C86.1874 201.724 65.8914 202.271 63.7761 201.698C63.376 201.589 63.0408 201.454 63.2067 200.977C64.1506 198.251 70.847 194.874 73.4308 193.641C75.387 192.707 77.8169 191.307 79.7407 192.957C81.03 194.061 82.6477 195.558 84.397 194.362C85.2332 193.791 84.438 192.41 83.5984 192.994C82.5724 193.704 81.5669 192.442 80.8812 191.835C78.0101 189.294 75.0912 190.995 71.6643 192.709C68.4068 194.337 63.1366 197.155 61.801 200.368C61.0435 202.194 62.6937 203.162 64.2908 203.294C71.9213 203.567 79.5616 203.287 87.1518 202.458C89.185 202.208 91.3875 201.319 91.1241 198.904C90.8816 196.411 89.947 194.035 88.4258 192.045Z" fill="#191919"/>
<path d="M142.837 100.102C142.872 100.098 142.904 100.081 142.928 100.055C142.952 100.028 142.965 99.9942 142.965 99.9589C142.965 99.9235 142.952 99.8893 142.928 99.863C142.904 99.8366 142.872 99.8199 142.837 99.8161C142.802 99.8199 142.769 99.8366 142.745 99.863C142.722 99.8893 142.709 99.9235 142.709 99.9589C142.709 99.9942 142.722 100.028 142.745 100.055C142.769 100.081 142.802 100.098 142.837 100.102Z" fill="#F2B886"/>
<path d="M266.403 139.536C260.589 136.287 253.726 135.374 247.208 134.594C243.713 134.002 240.162 133.805 236.623 134.006C234.627 134.218 231.189 135.05 231.264 137.597C230.709 139.092 230.252 140.623 229.896 142.178C229.289 144.246 228.795 146.346 228.413 148.467C212.362 149.941 194.62 146.23 188.712 142.881C188.276 142.633 187.756 143.248 188.162 143.602C190.664 145.548 193.586 146.882 196.695 147.498C207.27 150.277 218.248 151.203 229.14 150.235C232.683 150.061 236.145 149.12 239.289 147.479C237.596 150.449 236.42 155.581 234.576 157.836C232.216 160.724 227.601 160.287 224.256 160.401C198.526 161.285 192.255 156.33 186.874 154.965C186.766 154.939 186.651 154.952 186.552 155.003C186.452 155.053 186.374 155.137 186.331 155.239C186.287 155.342 186.282 155.457 186.315 155.563C186.349 155.67 186.419 155.761 186.513 155.82C188.194 156.966 190.039 157.851 191.985 158.443C202.19 162.034 213.495 162.428 224.273 162.015C227.733 161.884 232.073 162.216 234.875 159.811C236.264 158.4 237.288 156.671 237.858 154.775C238.94 152.471 239.83 150.081 240.518 147.629C240.537 147.551 240.54 147.469 240.526 147.389C240.512 147.309 240.482 147.233 240.438 147.166C240.393 147.098 240.336 147.04 240.268 146.996C240.2 146.952 240.124 146.921 240.045 146.908C240.811 146.327 241.343 145.491 241.546 144.551C242.155 141.222 238.448 140.663 235.178 139.325C234.287 138.96 232.406 138.053 233.449 136.892C235.062 135.097 240.664 135.538 243.066 135.77C250.275 136.191 257.383 137.671 264.161 140.162C261.576 140.863 259.047 141.759 256.598 142.841C256.502 142.897 256.421 142.975 256.36 143.067C256.298 143.159 256.259 143.264 256.244 143.374C256.23 143.483 256.24 143.595 256.275 143.7C256.31 143.805 256.368 143.901 256.445 143.98C258.171 145.348 259.666 146.984 260.873 148.826C246.24 147.256 246.189 146.839 242.576 146.851C242.491 146.855 242.411 146.889 242.349 146.946C242.287 147.003 242.247 147.079 242.236 147.163C242.225 147.246 242.243 147.331 242.287 147.402C242.332 147.474 242.4 147.527 242.48 147.554C245.724 148.446 249.044 149.031 252.398 149.302C255.686 149.748 258.973 150.097 262.261 150.423C262.387 150.422 262.511 150.389 262.621 150.325C262.73 150.262 262.821 150.171 262.884 150.061C262.947 149.952 262.981 149.828 262.981 149.702C262.982 149.575 262.949 149.451 262.887 149.341C261.693 147.212 260.151 145.298 258.326 143.677C261.005 142.652 263.746 141.801 266.534 141.13C267.102 140.921 267.261 140.015 266.403 139.536Z" fill="#F2B886"/>
<path d="M98.4232 202.782C105.106 205.809 121.536 209.246 141.173 215.022C150.636 217.806 151.103 218.384 153.203 218.215C153.309 218.211 153.413 218.177 153.5 218.116C153.588 218.055 153.655 217.971 153.696 217.872C153.736 217.773 153.747 217.665 153.726 217.561C153.706 217.456 153.656 217.359 153.583 217.283C152.138 216.234 150.496 215.491 148.755 215.097C143.242 213.331 105.162 202.667 98.6968 201.793C98.1547 201.722 97.9495 202.568 98.4232 202.782Z" fill="#F2B886"/>
<path d="M93.235 214.605C94.8926 215.501 96.654 216.19 98.4796 216.657C100.342 217.266 142.115 229.884 144.224 230.508C146.279 231.328 148.457 231.798 150.667 231.897C150.794 231.893 150.916 231.849 151.015 231.771C151.114 231.692 151.185 231.584 151.217 231.461C151.249 231.339 151.24 231.209 151.192 231.092C151.144 230.975 151.06 230.877 150.951 230.812C149.32 229.835 147.543 229.123 145.688 228.704C143.824 228.135 101.995 215.665 99.8869 215.077C97.821 214.331 95.6684 213.852 93.4812 213.651C93.3701 213.654 93.2631 213.693 93.1763 213.763C93.0894 213.832 93.0274 213.928 92.9997 214.035C92.9719 214.143 92.9798 214.257 93.0223 214.359C93.0647 214.462 93.1394 214.548 93.235 214.605Z" fill="#F2B886"/>
<path d="M194.186 258.315C192.818 258.109 192.647 258.06 190.822 257.877C189.681 259.416 185.273 265.346 184.189 266.81C188.028 267.265 191.867 267.626 195.725 267.855C195.362 264.794 194.769 261.305 194.186 258.315Z" fill="#191919"/>
<path d="M128.259 60.7799C128.047 60.7799 127.844 60.8641 127.694 61.0138C127.544 61.1636 127.46 61.3667 127.46 61.5785C127.46 61.7903 127.544 61.9934 127.694 62.1432C127.844 62.2929 128.047 62.3771 128.259 62.3771C128.471 62.3771 128.674 62.2929 128.823 62.1432C128.973 61.9934 129.057 61.7903 129.057 61.5785C129.057 61.3667 128.973 61.1636 128.823 61.0138C128.674 60.8641 128.471 60.7799 128.259 60.7799Z" fill="#191919"/>
<path d="M130.596 65.7034C130.66 65.7189 130.727 65.7154 130.789 65.6935C130.852 65.6716 130.906 65.6321 130.946 65.5798C130.987 65.5276 131.011 65.4648 131.017 65.3991C131.022 65.3333 131.008 65.2674 130.977 65.2093C130.726 64.6963 130.197 64.4107 129.874 63.9541C130.306 63.5167 130.64 62.992 130.853 62.4152C131.067 61.8384 131.154 61.2227 131.11 60.6094C131.107 60.5245 131.074 60.4437 131.017 60.381C130.959 60.3182 130.882 60.2777 130.798 60.2665C130.714 60.2552 130.628 60.274 130.557 60.3195C130.485 60.3651 130.432 60.4344 130.406 60.5153C130.254 61.1829 130.031 61.8324 129.741 62.4527C129.515 62.8905 128.978 63.2889 128.867 63.7455C128.672 64.5424 129.932 65.5444 130.596 65.7034Z" fill="#191919"/>
<path d="M132.525 67.5446C132.474 68.191 132.012 68.969 131.291 68.875C131.006 68.8287 130.735 68.7193 130.499 68.5548C130.262 68.3902 130.065 68.1748 129.923 67.9242C129.882 67.8589 129.819 67.8102 129.746 67.787C129.673 67.7637 129.593 67.7673 129.523 67.7972C129.452 67.827 129.394 67.8812 129.359 67.9499C129.325 68.0187 129.316 68.0975 129.334 68.1722C129.476 68.6692 129.773 69.1083 130.181 69.4258C130.588 69.7433 131.087 69.9229 131.603 69.9386C132.821 69.9694 133.52 68.6099 133.62 67.5446C133.601 67.4124 133.536 67.2912 133.435 67.2035C133.335 67.1157 133.206 67.0674 133.072 67.0674C132.939 67.0674 132.81 67.1157 132.709 67.2035C132.609 67.2912 132.543 67.4124 132.525 67.5446Z" fill="#191919"/>
<path d="M222.542 99.2469C221.709 98.9049 218.551 98.3696 217.733 98.0293C212.55 95.8765 210.609 91.6032 199.47 90.7516C195.137 90.4198 190.785 90.714 186.452 90.3908C182.203 89.8939 177.998 89.0805 173.87 87.9574C170.46 87.1828 163.964 85.9396 160.814 87.4256C160.453 87.5966 160.683 88.0874 161.006 88.1096C162.013 88.178 163.039 88.0532 164.046 88.0344C171.293 87.8976 177.808 90.7978 184.951 91.5878C193.123 92.4907 202.107 90.6062 209.638 94.7803C211.423 95.7704 213.039 96.9828 214.787 98.0293C217.13 99.3027 219.713 100.073 222.371 100.292C222.499 100.293 222.624 100.249 222.722 100.167C222.82 100.084 222.886 99.9695 222.906 99.8429C222.927 99.7164 222.902 99.5866 222.835 99.4772C222.768 99.3678 222.664 99.2861 222.542 99.2469Z" fill="#191919"/>
<path d="M236.871 93.4309C236.498 92.5981 235.371 92.1723 234.608 91.7773C231.743 90.1979 228.53 89.3552 225.258 89.3252C225.183 89.3261 225.111 89.3541 225.055 89.404C225 89.4539 224.964 89.5224 224.955 89.5967C224.945 89.671 224.963 89.7461 225.005 89.8081C225.047 89.8701 225.11 89.9148 225.183 89.9339C228.233 90.5253 231.196 91.5021 234 92.8409C234.796 93.2445 235.655 94.0379 236.565 93.9815C236.627 93.9775 236.688 93.9578 236.741 93.9243C236.794 93.8908 236.837 93.8445 236.868 93.7897C236.898 93.7349 236.915 93.6734 236.915 93.6107C236.916 93.548 236.9 93.4861 236.871 93.4309Z" fill="#191919"/>
<path d="M234.612 95.4452C231.943 93.8617 228.973 92.8518 225.891 92.4801C225.472 92.4271 225.397 93.1094 225.795 93.2222C234.017 95.5358 234.952 97.7896 236.286 97.6118C236.344 97.6108 236.4 97.5968 236.451 97.5708C236.503 97.5448 236.547 97.5075 236.582 97.4617C236.617 97.416 236.641 97.3629 236.652 97.3065C236.663 97.2502 236.662 97.192 236.647 97.1364C236.435 96.2729 235.33 95.8642 234.612 95.4452Z" fill="#191919"/>
<path d="M231.814 98.1628C229.043 96.8416 226.08 95.9695 223.035 95.579C222.182 95.315 221.266 95.3415 220.431 95.6542C220.389 95.6828 220.355 95.7211 220.331 95.7658C220.308 95.8105 220.296 95.8602 220.296 95.9107C220.296 95.9612 220.308 96.0109 220.331 96.0556C220.355 96.1003 220.389 96.1386 220.431 96.1672C221.325 96.8683 221.768 96.4374 225.846 97.3454C227.751 97.7695 229.62 98.4107 231.51 98.8844C231.601 98.9041 231.695 98.8914 231.778 98.8486C231.86 98.8058 231.925 98.7355 231.961 98.6499C231.997 98.5642 232.002 98.4687 231.976 98.3798C231.949 98.2908 231.892 98.214 231.814 98.1628Z" fill="#191919"/>
<path d="M185.578 79.7477C197.95 82.0169 204.316 87.6325 210.093 88.0908C213.655 88.1045 217.212 87.8501 220.736 87.3299C224.513 86.9245 228.333 87.4064 231.892 88.7372C232.024 88.7658 232.161 88.7473 232.281 88.6849C232.4 88.6225 232.494 88.5202 232.546 88.3957C232.598 88.2712 232.605 88.1325 232.565 88.0037C232.525 87.8748 232.441 87.7641 232.328 87.6907C230.889 86.8982 229.306 86.4011 227.672 86.2286C221.981 85.3309 217.241 86.6424 212.412 86.8169C207.803 86.9879 205.813 85.6934 201.883 83.8534C196.481 81.3209 187.476 78.0189 181.662 78.0189C182.5 75.9325 182.493 73.6024 181.644 71.5209C179.569 66.5277 174.497 66.9689 171.78 64.2038C169.792 62.1809 168.218 57.7058 162.107 55.6897C158.913 54.6312 155.513 55.3067 152.3 54.4551C147.182 53.0974 144.843 46.7242 139.928 44.2686C138.566 43.5833 137.08 43.1795 135.558 43.0814C134.037 42.9833 132.511 43.1928 131.072 43.6975C124.217 46.2095 121.838 53.9575 125.675 58.1419C125.733 58.2045 125.804 58.2538 125.883 58.2866C125.962 58.3193 126.047 58.3347 126.132 58.3317C125.075 64.0465 124.764 73.1249 130.525 74.091C130.571 75.0173 130.519 75.9459 130.369 76.8612C130.102 78.1266 131.322 78.0907 131.51 77.4119C131.808 76.3485 131.802 75.2226 131.491 74.1629C132.828 74.0335 134.119 73.6042 135.267 72.907C136.415 72.2098 137.391 71.2625 138.122 70.1358C138.217 72.1664 139.096 74.0809 140.575 75.4761C141.814 76.6885 142.384 76.4508 143.502 75.7805C145.769 74.4228 148.69 74.4689 151.255 74.3749C153.882 74.164 156.525 74.4476 159.048 75.2111C159.104 75.4573 159.085 75.4197 159.142 75.6659C159.043 75.7456 158.967 75.8497 158.922 75.9678C158.876 76.086 158.862 76.2141 158.882 76.3392C158.901 76.4644 158.953 76.5823 159.032 76.6811C159.111 76.7799 159.215 76.8562 159.333 76.9023C165.881 77.9078 172.479 78.5484 179.097 78.8209C180.768 78.9047 185.082 79.6571 185.578 79.7477ZM132.421 55.2691C133.746 56.9748 135.418 58.3804 137.326 59.3936C137.911 59.5597 138.43 59.9054 138.808 60.382C138.829 60.42 138.841 60.4622 138.843 60.5054C138.845 60.5486 138.838 60.5919 138.822 60.6319C138.805 60.672 138.78 60.708 138.748 60.7372C138.716 60.7664 138.678 60.7882 138.637 60.8009C137.411 61.3139 135.651 59.869 134.74 59.1662C133.444 58.2987 132.459 57.0408 131.927 55.5752C131.906 55.5115 131.908 55.4427 131.931 55.3798C131.954 55.3169 131.997 55.2635 132.054 55.2283C132.111 55.193 132.178 55.1778 132.245 55.1852C132.311 55.1926 132.373 55.2222 132.421 55.2691ZM140.233 66.8235C139.832 67.051 139.473 66.7278 139.15 66.4815C139.068 66.4338 138.977 66.4053 138.883 66.3981C138.788 66.3909 138.694 66.4052 138.606 66.4399C138.518 66.4747 138.439 66.529 138.375 66.5987C138.311 66.6684 138.264 66.7517 138.237 66.8423C137.18 72.2613 126.417 78.6037 126.701 63.8584C126.83 61.3559 127.097 58.8623 127.5 56.3891C129.666 57.4151 130.959 59.8296 132.744 61.4251C132.663 61.5918 132.642 61.7818 132.686 61.9621C132.73 62.1424 132.836 62.3017 132.985 62.4123C133.134 62.5229 133.317 62.578 133.502 62.5679C133.688 62.5578 133.863 62.4832 134 62.357C135.96 63.6277 138.239 64.3194 140.575 64.3526C140.696 65.0041 140.812 66.4986 140.233 66.8235Z" fill="#191919"/>
<path d="M332.825 133.074C263.254 123.103 179.629 116.464 167.714 116.387C168.473 116.769 176.018 120.606 177.901 121.634C179.643 122.552 181.302 123.621 182.86 124.826C220.319 126.04 257.67 129.543 294.702 135.317C296.257 139.361 304.312 145.259 312.185 145.94C311.559 146.453 275.702 176.068 267.944 182.809C250.083 198.324 243.334 207.84 230.752 228.343C227.289 233.986 223.795 239.651 220.811 245.561C223.097 250.958 224.94 256.532 226.323 262.228C232.244 245.571 240.035 229.638 249.546 214.736C271.855 182.467 310.528 166.708 333.336 134.385C333.402 134.268 333.44 134.137 333.45 134.003C333.459 133.869 333.438 133.734 333.389 133.609C333.34 133.484 333.265 133.371 333.167 133.278C333.069 133.186 332.953 133.116 332.825 133.074Z" fill="#191919"/>
<path d="M222.732 256.565C220.68 249.683 219.517 246.134 215.491 240.491C215.51 241.499 215.526 242.525 215.51 243.532C215.503 244 215.377 244.459 215.144 244.866C214.91 245.272 214.578 245.613 214.177 245.856C213.777 246.099 213.321 246.237 212.853 246.256C212.385 246.275 211.919 246.175 211.5 245.965C211.5 245.965 204.677 242.62 204.66 242.601C203.289 244.939 202.045 247.35 200.934 249.823C200.72 250.251 200.399 250.616 200.001 250.882C199.603 251.148 199.143 251.306 198.666 251.341C198.188 251.375 197.71 251.285 197.278 251.079C196.847 250.873 196.476 250.558 196.203 250.165C194.786 248.27 193.25 246.468 191.604 244.768C189.874 245.546 184.516 248.116 183.526 248.568C183.108 248.771 182.645 248.866 182.18 248.844C181.716 248.822 181.264 248.684 180.867 248.442C180.469 248.2 180.139 247.862 179.906 247.459C179.674 247.056 179.546 246.601 179.535 246.136C179.522 245.281 179.479 242.049 179.479 241.271C177.635 241.897 175.773 242.448 173.892 242.925C173.536 243.02 173.165 243.043 172.8 242.99C172.435 242.938 172.084 242.812 171.77 242.62C171.455 242.428 171.182 242.174 170.969 241.874C170.755 241.574 170.605 241.233 170.527 240.873C156.206 253.33 144.857 268.837 137.314 286.254C137.008 286.995 137.979 287.568 138.586 287.224C144.12 284.047 149.845 281.216 155.729 278.747C156.014 278.585 156.313 278.445 156.621 278.33C156.507 278.443 156.736 278.804 156.811 278.995C157.059 279.832 160.953 292.711 161.924 295.947C162.117 296.591 163.164 296.861 163.501 296.155C171.854 278.667 184.457 263.853 194.308 249.917C198.242 265.655 199.748 281.902 198.773 298.094C198.716 299.083 199.97 299.196 200.445 298.551C204.22 293.467 207.698 288.168 210.861 282.682C216.405 286.523 221.566 290.888 226.273 295.719C226.392 295.833 226.542 295.91 226.704 295.941C226.866 295.972 227.034 295.955 227.187 295.892C227.339 295.83 227.471 295.725 227.565 295.589C227.659 295.454 227.712 295.294 227.718 295.129C227.73 277.617 227.01 270.931 222.732 256.565Z" fill="#F2B886"/>
<path d="M182.97 127.448C179.801 124.418 175.34 122.426 169.096 119.24C162.853 116.054 156.69 112.701 150.309 109.869C150.309 109.85 150.329 109.831 150.329 109.794C150.442 108.063 150.211 106.04 148.277 105.461C146.671 104.979 141.37 106.013 134.158 105.822C131.63 105.755 129.141 105.374 126.634 105.29C126.121 105.273 126.081 105.974 126.519 106.145C129.813 107.422 135.753 107.364 139.233 107.208C146.606 106.882 147.456 106.353 148.375 107.114C149.112 107.726 149.021 108.92 149.002 109.794C148.969 109.847 148.947 109.906 148.938 109.968C148.929 110.03 148.932 110.093 148.948 110.154C148.964 110.214 148.993 110.271 149.031 110.32C149.07 110.369 149.118 110.41 149.173 110.44C154.382 113.653 157.431 114.951 173.898 123.382C178.233 125.605 182.79 128.009 184.75 132.465C186.843 137.212 185.531 142.987 184.312 147.954C183.56 151.017 178.801 170.133 177.185 176.651C162.855 175.473 148.07 180.413 134.064 175.911C138.901 163.654 145.83 152.329 154.543 142.443C155.203 141.697 156.328 140.866 156.632 139.916C156.993 138.794 155.847 138.137 155.112 137.559C154.04 136.714 147.605 131.631 145.457 129.938C142.379 127.515 139.888 123.901 135.081 124.579C129.546 125.36 124.38 131.59 123.85 132.123C120.347 135.668 117.03 139.392 113.911 143.279C112.624 144.88 110.626 146.624 111.382 148.867C116.489 160.665 120.004 173.088 121.835 185.812C107.222 189.67 92.2524 184.69 77.4798 184.519C78.5486 171.754 80.4721 159.075 83.2373 146.567C84.9063 139.692 86.0024 135.343 91.0674 130.338C98.7966 122.698 118.997 112.896 124.306 109.647C124.611 109.459 124.419 108.903 124.04 109.038C117.949 111.453 112.089 114.416 106.533 117.889C101.157 120.783 96.0552 124.16 91.2914 127.978C85.828 132.675 84.1453 136.443 82.4165 142.934C78.7469 156.72 77.1925 170.998 75.804 185.277C75.8075 185.482 75.8906 185.678 76.0357 185.823C76.1809 185.968 76.3767 186.051 76.582 186.055C92.0147 186.027 107.617 191.527 122.877 187.139C123.075 187.077 123.242 186.943 123.344 186.763C123.447 186.583 123.477 186.371 123.429 186.169C121.688 173.366 118.21 160.859 113.091 148.996C112.927 148.735 112.82 148.444 112.774 148.14C112.728 147.836 112.745 147.526 112.824 147.229C113.171 146.599 113.599 146.017 114.098 145.499C117.001 141.81 120.074 138.269 123.315 134.876C126.343 131.702 130.729 126.593 135.09 126.061C139.055 125.577 141.401 128.681 144.175 130.87C155.586 139.873 155.044 139.351 155.027 139.555C145.244 150.253 137.513 162.661 132.22 176.157C132.171 176.359 132.201 176.571 132.303 176.751C132.405 176.932 132.573 177.066 132.771 177.127C147.326 182.356 162.778 176.614 177.698 178.19C177.864 178.19 178.026 178.137 178.16 178.038C178.293 177.938 178.391 177.799 178.44 177.64C180.037 171.421 184.627 152.727 185.394 149.627C187.286 141.976 189.377 133.573 182.97 127.448Z" fill="#191919"/>
<path d="M37.3408 225.607C37.1886 224.714 37.192 223.764 36.98 222.871C36.6021 221.148 35.8426 219.531 34.7574 218.14C33.6723 216.749 32.289 215.62 30.7094 214.834C33.2265 212.317 55.8943 185.35 76.2057 165.48C76.6417 162.171 77.2077 158.664 77.7823 155.408C52.4213 179.444 27.4331 204.239 8.68292 233.574C8.5995 233.725 8.5619 233.897 8.57472 234.069C8.58753 234.241 8.6502 234.405 8.75506 234.542C8.85992 234.679 9.00243 234.783 9.16516 234.84C9.32788 234.897 9.50376 234.906 9.6713 234.865C23.8506 231.787 38.7652 234.432 52.9052 236.5C95.4637 242.722 115.32 251.394 150.114 260.198C151.975 257.728 153.939 255.295 156.006 252.9C114.775 245.166 75.7354 224.403 37.3408 225.607Z" fill="#191919"/>
<path d="M113.131 90.8453C113.114 90.9411 113.206 91.0368 113.302 91.0744C118.612 92.8443 120.428 91.9089 121.168 92.5177C123.239 95.9882 125.019 99.6241 126.49 103.388C131.009 103.388 131.507 104.335 141.445 103.751C146.681 103.441 147.28 103.128 149.14 103.751C150.151 101.074 150.896 98.3051 151.363 95.4828C151.365 94.7966 151.454 94.1134 151.628 93.4496C152.282 92.0816 158.81 93.082 161.588 90.6743C161.615 90.6484 161.636 90.6163 161.648 90.5807C161.66 90.5451 161.664 90.507 161.658 90.4698C161.653 90.4325 161.638 90.3972 161.616 90.3667C161.594 90.3362 161.565 90.3115 161.531 90.2947C160.651 89.8968 159.938 89.205 159.512 88.3382C159.087 87.4714 158.977 86.4836 159.2 85.5443C159.657 83.8719 161.035 82.5604 161.1 80.7734C161.169 78.8736 159.77 77.2953 159.77 75.3766C159.766 74.4269 159.978 73.4889 160.39 72.6329C160.801 71.7769 161.401 71.0254 162.145 70.4347C162.175 70.4035 162.197 70.3648 162.208 70.3226C162.219 70.2804 162.219 70.2361 162.207 70.194C162.196 70.1519 162.174 70.1135 162.143 70.0826C162.112 70.0516 162.074 70.0292 162.032 70.0175C157.869 69.0119 153.518 69.0902 149.394 70.2449C146.105 71.1923 142.172 72.9245 141.221 76.5548C140.303 81.1462 132.911 82.4458 129.552 80.1852C126.228 77.9451 126.102 73.8906 121.361 70.1697C119.256 68.4868 116.791 67.3097 114.159 66.7292C114.117 66.7175 114.072 66.7188 114.031 66.7327C113.989 66.7467 113.953 66.7727 113.927 66.8075C113.9 66.8423 113.885 66.8842 113.882 66.9278C113.88 66.9715 113.89 67.0148 113.913 67.0524C114.465 68.0521 114.777 69.1671 114.823 70.3085C114.869 71.4499 114.648 72.5863 114.178 73.6273C113.412 75.6588 112.045 77.3705 111.194 79.349C108.937 84.5867 114.116 85.1715 113.131 90.8453Z" fill="#F2B886"/>
<path d="M226.095 218.841C224.247 216.808 222.204 214.962 219.995 213.33C221.345 211.315 222.697 209.285 224.024 207.268C224.09 207.154 224.129 207.028 224.138 206.897C224.147 206.767 224.125 206.636 224.076 206.515C224.026 206.394 223.95 206.286 223.852 206.199C223.754 206.112 223.637 206.049 223.511 206.014C220.977 205.118 218.436 204.19 215.909 203.278C216.815 200.309 217.545 197.288 218.094 194.232C218.132 194.088 218.132 193.936 218.093 193.791C218.054 193.647 217.978 193.515 217.872 193.41C217.766 193.304 217.634 193.228 217.49 193.189C217.346 193.15 217.194 193.149 217.049 193.187C214.23 193.707 211.464 194.477 208.781 195.487C207.984 192.902 207.157 190.322 206.35 187.733C206.312 187.61 206.248 187.498 206.161 187.404C206.075 187.31 205.968 187.237 205.85 187.19C205.731 187.142 205.603 187.122 205.476 187.131C205.349 187.139 205.225 187.176 205.113 187.238C202.684 188.757 200.417 190.521 198.349 192.503C196.813 190.593 195.163 188.777 193.407 187.067C193.323 186.985 193.221 186.922 193.109 186.885C192.998 186.847 192.879 186.835 192.762 186.849C192.645 186.864 192.533 186.905 192.434 186.969C192.335 187.033 192.252 187.119 192.191 187.22C191.389 188.834 190.898 191.459 190.158 193.092C190.272 193.605 190.158 193.092 190.062 193.644C189.426 197.386 183.165 198.261 179.686 198.242C176.113 198.222 172.558 198.335 168.986 198.432C168.853 198.434 168.722 198.467 168.603 198.527C168.484 198.588 168.381 198.674 168.3 198.781C168.22 198.887 168.164 199.01 168.138 199.14C168.112 199.271 168.116 199.406 168.15 199.535C169.005 202.741 170.45 205.958 171.532 209.532C169.253 210.691 166.975 211.857 164.692 213.01C164.58 213.077 164.485 213.169 164.414 213.279C164.342 213.389 164.297 213.513 164.28 213.643C164.264 213.773 164.277 213.905 164.319 214.029C164.36 214.153 164.43 214.266 164.521 214.359C171.202 221.917 170.688 221.219 170.506 221.695C170.12 222.403 169.654 223.065 169.12 223.668C168.658 224.33 165.734 228.494 164.749 229.903C164.68 230.02 164.64 230.15 164.631 230.285C164.621 230.42 164.643 230.555 164.695 230.68C164.746 230.805 164.826 230.917 164.927 231.006C165.029 231.095 165.15 231.159 165.281 231.194C168.011 231.657 170.781 231.842 173.548 231.746C173.148 234.501 172.772 237.258 172.369 240.012C172.333 240.162 172.336 240.318 172.378 240.466C172.419 240.614 172.499 240.749 172.607 240.858C172.716 240.967 172.851 241.046 172.999 241.087C173.147 241.129 173.303 241.132 173.453 241.097C176.137 240.431 178.777 239.599 181.358 238.607C181.396 241.115 181.435 243.624 181.454 246.131C181.455 246.279 181.495 246.425 181.569 246.554C181.644 246.682 181.75 246.789 181.879 246.864C182.007 246.939 182.153 246.979 182.301 246.98C182.45 246.981 182.596 246.944 182.726 246.871C185.633 245.519 188.508 244.087 191.447 242.805C192.148 242.499 192.17 242.671 193.328 243.85C194.889 245.501 196.354 247.239 197.718 249.057C198.06 249.515 198.899 249.705 199.2 249.057C200.518 246.186 201.99 243.389 203.609 240.678C204.075 239.905 203.889 240.127 212.33 244.269C212.461 244.34 212.608 244.377 212.758 244.376C212.907 244.374 213.054 244.334 213.183 244.26C213.313 244.185 213.421 244.079 213.498 243.95C213.574 243.822 213.617 243.676 213.621 243.526C213.662 240.647 213.554 237.768 213.299 234.899C215.88 234.28 218.549 234.119 221.186 234.424C221.317 234.423 221.446 234.392 221.564 234.333C221.681 234.274 221.783 234.189 221.862 234.084C221.941 233.979 221.995 233.857 222.019 233.728C222.044 233.599 222.038 233.466 222.003 233.34C218.19 223.562 218.552 224.484 218.771 224.256C219.123 223.891 217.451 225.101 225.898 220.209C226.012 220.141 226.11 220.049 226.183 219.939C226.257 219.828 226.305 219.703 226.324 219.572C226.343 219.441 226.332 219.307 226.292 219.18C226.253 219.054 226.185 218.938 226.095 218.841ZM193.807 222.794C205.06 208.699 204.505 209.114 205.741 208.408C205.842 208.351 205.957 208.325 206.073 208.333C206.188 208.342 206.299 208.384 206.39 208.455C206.482 208.527 206.55 208.623 206.587 208.733C206.623 208.843 206.627 208.962 206.596 209.073C206.047 210.915 205.293 211.04 194.434 224.657C194.281 224.81 194.072 224.896 193.855 224.896C193.637 224.896 193.429 224.81 193.275 224.657C190.72 221.799 187.923 219.065 185.672 215.972C185.313 215.477 186.071 215.022 186.471 215.364C189.054 217.701 191.504 220.181 193.807 222.794ZM208.668 230.416C205.717 233.165 202.034 235.004 198.063 235.712C194.092 236.42 190.001 235.967 186.281 234.407C183.081 232.967 180.353 230.654 178.409 227.732C176.466 224.81 175.387 221.4 175.296 217.892C175.258 211.144 179.347 203.528 185.939 201.168C186.414 200.997 186.659 201.696 186.262 201.946C183.107 203.821 180.525 206.522 178.793 209.757C177.655 211.956 177.017 214.38 176.924 216.854C176.831 219.328 177.285 221.793 178.254 224.071C179.224 226.35 180.685 228.386 182.532 230.035C184.379 231.683 186.568 232.904 188.942 233.608C195.763 235.717 204.739 233.326 208.992 227.394C210.962 224.443 212.067 220.999 212.181 217.452C212.296 213.906 211.415 210.398 209.638 207.326C207.846 204.382 205.054 202.181 201.772 201.129C198.439 200.123 194.899 200.018 191.512 200.826C191.301 200.873 191.081 200.837 190.896 200.726C190.711 200.614 190.576 200.436 190.52 200.228C190.463 200.019 190.489 199.797 190.593 199.608C190.696 199.418 190.869 199.276 191.074 199.21C195.238 198.077 199.659 198.345 203.656 199.971C215.486 204.815 216.947 222.266 208.668 230.416Z" fill="#F2B886"/>
<path d="M185.178 188.784C183.436 187.406 181.558 186.208 179.573 185.21C176.194 183.387 172.129 180.923 169.253 183.12C168.434 183.745 167.221 185.455 166.06 184.678C165.205 184.107 164.427 185.473 165.262 186.046C165.913 186.39 166.663 186.5 167.386 186.358C168.108 186.216 168.761 185.831 169.234 185.266C170.855 183.832 171.469 183.196 174.783 184.659C177.881 186.027 184.798 189.374 186.319 192.413C186.546 192.869 186.584 193.115 186.091 193.326C183.539 193.566 180.976 193.655 178.413 193.591C174.174 193.563 169.935 193.394 165.718 193.04C164.179 192.912 159.884 193.155 159.904 190.874C160.152 188.572 160.856 186.344 161.975 184.317C162.184 183.861 161.59 183.267 161.216 183.727C159.848 185.476 158.963 187.554 158.651 189.752C158.402 190.583 158.442 191.474 158.765 192.279C159.764 194.07 162.382 194.16 164.22 194.331C170.675 194.942 177.161 195.17 183.642 195.015C185.087 194.981 187.666 195.147 188.032 193.247C188.348 191.588 186.303 189.723 185.178 188.784Z" fill="#191919"/>
</svg>
