<svg width="24" height="25" viewBox="0 0 24 25" fill="none" xmlns="http://www.w3.org/2000/svg">
<g clip-path="url(#clip0_101_2139)">
<path d="M23.89 6.32999C23.8604 6.31021 23.8256 6.29965 23.79 6.29965C23.7544 6.29965 23.7196 6.31021 23.69 6.32999L13.94 16.08C13.6857 16.3352 13.3833 16.5373 13.0503 16.6746C12.7172 16.8119 12.3602 16.8817 12 16.88C11.2704 16.8785 10.5704 16.5914 10.05 16.08L0.31 6.36999C0.2804 6.35021 0.2456 6.33965 0.21 6.33965C0.1744 6.33965 0.1396 6.35021 0.11 6.36999C0.0823591 6.38089 0.0578479 6.39847 0.038654 6.42115C0.0194601 6.44384 0.00618038 6.47092 0 6.49999L0 18.5C0 19.0304 0.210714 19.5391 0.585786 19.9142C0.960859 20.2893 1.46957 20.5 2 20.5H22C22.5304 20.5 23.0391 20.2893 23.4142 19.9142C23.7893 19.5391 24 19.0304 24 18.5V6.49999C24.0008 6.46389 23.9908 6.42837 23.9712 6.39805C23.9516 6.36773 23.9233 6.34402 23.89 6.32999Z" fill="#271515"/>
<path d="M11.1101 15.06C11.3471 15.2903 11.6646 15.4191 11.9951 15.4191C12.3256 15.4191 12.6431 15.2903 12.8801 15.06L22.5701 5.37C22.6353 5.30441 22.6811 5.22201 22.7023 5.13198C22.7234 5.04194 22.7192 4.94779 22.6901 4.86C22.5801 4.5 22.2701 4.5 22.0001 4.5H2.00011C1.72011 4.5 1.42011 4.5 1.31011 4.86C1.28098 4.94779 1.27677 5.04194 1.29796 5.13198C1.31914 5.22201 1.36489 5.30441 1.43011 5.37L11.1101 15.06Z" fill="#271515"/>
</g>
<defs>
<clipPath id="clip0_101_2139">
<rect width="24" height="24" fill="white" transform="translate(0 0.5)"/>
</clipPath>
</defs>
</svg>
