<svg width="188" height="188" viewBox="0 0 188 188" fill="none" xmlns="http://www.w3.org/2000/svg">
<g clip-path="url(#clip0_101_236)">
<path d="M94.0013 2.19358C71.623 2.18693 49.9765 10.1641 32.9541 24.6908C15.9316 39.2175 4.65014 59.3405 1.13815 81.4415C-2.37383 103.542 2.11411 126.171 13.795 145.259C25.4758 164.347 43.5833 178.641 64.8613 185.572H67.0546C69.0555 185.669 71.0178 184.997 72.5379 183.692C73.4525 182.895 74.1796 181.906 74.6671 180.796C75.1546 179.685 75.3905 178.481 75.3579 177.269V175.624V167.085C75.2949 166.577 75.1308 166.086 74.8752 165.642C74.6195 165.198 74.2776 164.81 73.8696 164.5C73.4238 164.143 72.9053 163.888 72.3505 163.753C71.7957 163.618 71.218 163.605 70.658 163.717C49.5863 168.26 45.1213 155.1 44.8863 154.239C42.2366 147.265 37.5053 141.276 31.3346 137.084L30.1596 136.222C31.0846 135.775 32.1128 135.586 33.1363 135.674C35.0886 135.967 36.9335 136.754 38.4963 137.961C40.0591 139.167 41.2879 140.753 42.0663 142.567C45.0966 147.843 50.0554 151.739 55.8992 153.433C61.7431 155.128 68.0165 154.49 73.3996 151.654C73.9813 151.395 74.4957 151.006 74.9032 150.517C75.3107 150.028 75.6003 149.452 75.7496 148.834C76.0672 145.238 77.6167 141.862 80.1363 139.277C80.7171 138.776 81.1381 138.116 81.347 137.377C81.5559 136.639 81.5435 135.856 81.3113 135.125C81.0974 134.393 80.6702 133.741 80.0842 133.253C79.4982 132.765 78.78 132.462 78.0213 132.384C59.4563 130.269 40.4213 123.767 40.4213 91.7286C40.2861 83.6721 43.2598 75.8731 48.7246 69.9519C49.2186 69.411 49.5474 68.74 49.6723 68.0183C49.7972 67.2965 49.713 66.554 49.4296 65.8786C47.2601 59.7681 47.2878 53.0925 49.5079 47.0002C56.7415 48.2929 63.5315 51.3915 69.2479 56.0086C69.7237 56.3338 70.2677 56.5453 70.8382 56.6268C71.4087 56.7083 71.9902 56.6576 72.5379 56.4786C79.5397 54.6113 86.7548 53.6633 94.0013 53.6586C101.276 53.6241 108.522 54.5726 115.543 56.4786C116.078 56.6569 116.647 56.7073 117.205 56.6257C117.762 56.5441 118.293 56.3327 118.755 56.0086C124.464 51.3798 131.257 48.2797 138.495 47.0002C140.646 53.0284 140.646 59.6154 138.495 65.6436C138.211 66.3245 138.134 67.0738 138.274 67.798C138.413 68.5223 138.762 69.1896 139.278 69.7169C144.658 75.5909 147.599 83.2936 147.503 91.2586C147.503 123.375 128.468 129.799 109.825 131.835C109.066 131.914 108.348 132.216 107.762 132.705C107.176 133.193 106.749 133.845 106.535 134.577C106.309 135.296 106.3 136.066 106.509 136.791C106.718 137.515 107.135 138.162 107.71 138.65C109.442 140.459 110.766 142.619 111.59 144.985C112.415 147.35 112.721 149.865 112.488 152.359V177.269C112.47 178.486 112.721 179.693 113.222 180.803C113.723 181.913 114.462 182.899 115.386 183.692C116.553 184.581 117.914 185.18 119.358 185.439C120.802 185.697 122.287 185.609 123.69 185.18C144.724 178.022 162.542 163.645 173.984 144.599C185.426 125.553 189.752 103.07 186.194 81.1377C182.635 59.2058 171.423 39.2433 154.547 24.7918C137.67 10.3402 116.22 2.33405 94.0013 2.19358Z" fill="#271515"/>
</g>
<defs>
<clipPath id="clip0_101_236">
<rect width="188" height="188" fill="white"/>
</clipPath>
</defs>
</svg>
