<svg width="71" height="32" viewBox="0 0 71 32" fill="none" xmlns="http://www.w3.org/2000/svg">
<path d="M20.5851 29.1747C20.5851 26.2037 20.5851 23.1314 20.5851 20.0591C20.5803 14.7972 20.6092 9.5352 20.5513 4.27324C20.532 2.53693 20.6961 1.42763 22.9685 1.46621C25.1204 1.49997 25.6849 2.2379 25.709 4.28771C25.6318 10.9146 24.9081 9.94999 31.4215 9.94999C33.3514 9.94999 33.3514 10.1911 33.3514 6.81499C33.3514 5.36807 33.3852 4.65908 33.3273 2.27166C33.2887 0.675229 33.8339 0.0627004 35.566 0C37.2692 0 38.9385 0.0144693 40.6223 0.0868153C43.3821 0.202569 45.1962 1.11895 46.6243 3.68C47.7774 5.7491 47.3432 7.38894 46.6243 9.42427C46.4386 9.94999 45.9006 10.4323 47.1165 11.0882C51.232 14.0207 53.0606 20.9996 50.5855 25.543C49.36 27.7905 47.459 29.5509 45.1721 30.9303C43.2422 32.0944 38.8999 32.1361 35.6914 31.8564C33.8409 31.695 33.3032 31.1811 33.3225 29.5027C33.3659 25.1668 33.2453 20.8308 33.3755 16.4997C33.4624 13.5721 31.4601 13.8518 29.6701 13.8133C26.5051 13.7506 25.8007 14.2956 25.791 16.6106C25.7765 19.5817 25.791 22.5478 25.7669 25.5188C25.7283 29.9802 26.1143 29.7246 20.5851 29.1747ZM39.3293 25.5381C43.054 26.4497 45.423 24.9642 45.9006 20.5993C46.2625 17.2618 43.4303 14.4547 39.3293 14.2088C39.3293 17.9949 39.3293 21.7713 39.3293 25.5381ZM40.1061 4.64461C39.1411 4.34998 39.2666 4.67875 39.2666 5.04975C39.2666 6.27963 39.2666 7.50469 39.2666 8.73457C39.2666 9.0676 39.2666 9.42427 39.8407 9.15418C40.5885 8.74422 41.071 8.26191 41.3846 7.38894C41.5535 5.60923 41.2592 4.9967 40.1061 4.64461Z" fill="white"/>
<path d="M15.7217 5.19928C16.8652 8.87446 16.3296 10.3021 13.1791 12.1927C11.9536 12.9258 10.7956 13.7795 9.61356 14.5898C8.26745 15.511 8.80782 17.1894 10.7426 18.1878C12.0983 18.8871 13.5313 19.4852 14.7664 20.3582C17.2898 22.1379 16.706 24.4192 16.0787 26.7825C15.9822 27.313 15.741 27.313 15.4467 27.1732C10.6026 23.7584 5.7634 20.3292 0.909686 16.9338C-0.378526 16.0319 -0.262732 15.3904 1.0303 14.5705C4.36422 12.4484 7.62093 10.2104 10.9404 8.06418C12.5036 7.04651 14.1344 6.1446 15.7217 5.19928Z" fill="white"/>
<path d="M54.9967 5.19928C53.8532 8.87446 54.3888 10.3021 57.5393 12.1927C58.7648 12.9258 59.9228 13.7795 61.1048 14.5898C62.4509 15.511 61.9106 17.1894 59.9758 18.1878C58.6201 18.8871 57.1871 19.4852 55.952 20.3582C53.4286 22.1379 54.0124 24.4192 54.6396 26.7825C54.7361 27.313 54.9774 27.313 55.2717 27.1732C60.1157 23.7584 64.955 20.3292 69.8087 16.9338C71.0969 16.0319 70.9811 15.3904 69.6881 14.5705C66.3542 12.4484 63.0975 10.2104 59.778 8.06418C58.2148 7.04651 56.584 6.1446 54.9967 5.19928Z" fill="white"/>
</svg>
