<svg width="30" height="30" viewBox="0 0 30 30" fill="none" xmlns="http://www.w3.org/2000/svg">
<g clip-path="url(#clip0_100_1418)">
<path d="M28.125 0H15.625C15.4592 0 15.3003 0.065848 15.1831 0.183058C15.0658 0.300269 15 0.45924 15 0.625C15.0033 2.11583 15.597 3.54465 16.6512 4.59883C17.7053 5.65301 19.1342 6.2467 20.625 6.25H23.75V9.375C23.7533 10.8658 24.347 12.2947 25.4012 13.3488C26.4553 14.403 27.8842 14.9967 29.375 15C29.5408 15 29.6997 14.9342 29.8169 14.8169C29.9342 14.6997 30 14.5408 30 14.375V1.875C30 1.37772 29.8025 0.900805 29.4508 0.549175C29.0992 0.197544 28.6223 0 28.125 0Z" fill="#A56037"/>
<path d="M20.625 7.5H8.125C7.95924 7.5 7.80027 7.56585 7.68306 7.68306C7.56585 7.80027 7.5 7.95924 7.5 8.125C7.5033 9.61583 8.09699 11.0447 9.15117 12.0988C10.2053 13.153 11.6342 13.7467 13.125 13.75H16.25V16.875C16.2533 18.3658 16.847 19.7947 17.9012 20.8488C18.9553 21.903 20.3842 22.4967 21.875 22.5C22.0408 22.5 22.1997 22.4342 22.3169 22.3169C22.4342 22.1997 22.5 22.0408 22.5 21.875V9.375C22.5 8.87772 22.3025 8.40081 21.9508 8.04917C21.5992 7.69754 21.1223 7.5 20.625 7.5Z" fill="#A56037"/>
<path d="M13.125 15H0.625C0.45924 15 0.300269 15.0658 0.183058 15.1831C0.065848 15.3003 0 15.4592 0 15.625C0.00330196 17.1158 0.596995 18.5447 1.65117 19.5988C2.70535 20.653 4.13417 21.2467 5.625 21.25H8.75V24.375C8.7533 25.8658 9.34699 27.2947 10.4012 28.3488C11.4553 29.403 12.8842 29.9967 14.375 30C14.5408 30 14.6997 29.9342 14.8169 29.8169C14.9342 29.6997 15 29.5408 15 29.375V16.875C15 16.3777 14.8025 15.9008 14.4508 15.5492C14.0992 15.1975 13.6223 15 13.125 15Z" fill="#A56037"/>
</g>
<defs>
<clipPath id="clip0_100_1418">
<rect width="30" height="30" fill="white"/>
</clipPath>
</defs>
</svg>
