<svg width="30" height="30" viewBox="0 0 30 30" fill="none" xmlns="http://www.w3.org/2000/svg">
<g clip-path="url(#clip0_100_1416)">
<path d="M28.125 0H1.875C1.37772 0 0.900805 0.197544 0.549175 0.549175C0.197544 0.900805 0 1.37772 0 1.875L0 28.125C0 28.6223 0.197544 29.0992 0.549175 29.4508C0.900805 29.8025 1.37772 30 1.875 30H28.125C28.6223 30 29.0992 29.8025 29.4508 29.4508C29.8025 29.0992 30 28.6223 30 28.125V1.875C30 1.37772 29.8025 0.900805 29.4508 0.549175C29.0992 0.197544 28.6223 0 28.125 0ZM13.9 21.875C13.9 22.7436 13.555 23.5766 12.9408 24.1908C12.3266 24.805 11.4936 25.15 10.625 25.15C9.75642 25.15 8.92341 24.805 8.30923 24.1908C7.69504 23.5766 7.35 22.7436 7.35 21.875C7.35 21.6695 7.43165 21.4723 7.57699 21.327C7.72233 21.1817 7.91946 21.1 8.125 21.1C8.33054 21.1 8.52767 21.1817 8.67301 21.327C8.81835 21.4723 8.9 21.6695 8.9 21.875C8.9 22.3325 9.08174 22.7713 9.40524 23.0948C9.72874 23.4183 10.1675 23.6 10.625 23.6C11.0825 23.6 11.5213 23.4183 11.8448 23.0948C12.1683 22.7713 12.35 22.3325 12.35 21.875V14.375C12.35 14.1695 12.4317 13.9723 12.577 13.827C12.7223 13.6817 12.9195 13.6 13.125 13.6C13.3305 13.6 13.5277 13.6817 13.673 13.827C13.8183 13.9723 13.9 14.1695 13.9 14.375V21.875ZM17.25 18.0625L19.6875 19.3125C20.2053 19.5668 20.6408 19.9622 20.9438 20.4531C21.2468 20.9441 21.4049 21.5106 21.4 22.0875C21.4 22.9075 21.0751 23.6941 20.4965 24.2751C19.9178 24.8561 19.1325 25.1842 18.3125 25.1875H15.625C15.4348 25.1634 15.2599 25.0707 15.1332 24.9269C15.0064 24.7831 14.9365 24.598 14.9365 24.4062C14.9365 24.2145 15.0064 24.0294 15.1332 23.8856C15.2599 23.7418 15.4348 23.6491 15.625 23.625H18.3125C18.6588 23.6249 18.9949 23.5079 19.2664 23.293C19.5379 23.078 19.7289 22.7777 19.8084 22.4407C19.888 22.1037 19.8514 21.7497 19.7047 21.436C19.558 21.1224 19.3097 20.8674 19 20.7125L16.5625 19.4625C15.9443 19.1478 15.4494 18.6348 15.1572 18.0056C14.865 17.3764 14.7923 16.6674 14.9507 15.992C15.1091 15.3166 15.4895 14.7138 16.031 14.2802C16.5725 13.8465 17.2438 13.607 17.9375 13.6H20.625C20.8152 13.6241 20.9901 13.7168 21.1168 13.8606C21.2435 14.0044 21.3135 14.1895 21.3135 14.3813C21.3135 14.573 21.2435 14.7581 21.1168 14.9019C20.9901 15.0457 20.8152 15.1384 20.625 15.1625H17.9375C17.5894 15.156 17.2495 15.2688 16.9744 15.4822C16.6993 15.6956 16.5054 15.9967 16.4251 16.3355C16.3448 16.6742 16.3828 17.0303 16.5329 17.3445C16.683 17.6587 16.936 17.912 17.25 18.0625Z" fill="#A56037"/>
</g>
<defs>
<clipPath id="clip0_100_1416">
<rect width="30" height="30" fill="white"/>
</clipPath>
</defs>
</svg>
