<svg width="30" height="30" viewBox="0 0 30 30" fill="none" xmlns="http://www.w3.org/2000/svg">
<g clip-path="url(#clip0_100_1412)">
<path fill-rule="evenodd" clip-rule="evenodd" d="M18.435 -0.000366211C17.2269 -0.000366211 16.2475 0.97901 16.2475 2.18714V7.81214C16.2475 9.02025 17.2269 9.99964 18.435 9.99964H27.81C29.0181 9.99964 29.9975 9.02025 29.9975 7.81214V2.18714C29.9975 0.97901 29.0181 -0.000366211 27.81 -0.000366211H18.435ZM18.435 12.4999C17.2269 12.4999 16.2475 13.4793 16.2475 14.6874V27.8127C16.2475 29.0208 17.2269 30.0002 18.435 30.0002H27.81C29.0181 30.0002 29.9975 29.0208 29.9975 27.8127V14.6874C29.9975 13.4793 29.0181 12.4999 27.81 12.4999H18.435ZM0.00244141 2.18744C0.00244141 0.979316 0.981819 -6.10347e-05 2.18994 -6.10347e-05H11.5649C12.7731 -6.10347e-05 13.7525 0.979315 13.7525 2.18744V15.3127C13.7525 16.5208 12.7731 17.5002 11.5649 17.5002H2.18994C0.981819 17.5002 0.00244141 16.5208 0.00244141 15.3127V2.18744ZM2.18994 19.9997C0.981819 19.9997 0.00244141 20.9791 0.00244141 22.1872V27.8122C0.00244141 29.0203 0.981819 29.9997 2.18994 29.9997H11.5649C12.7731 29.9997 13.7525 29.0203 13.7525 27.8122V22.1872C13.7525 20.9791 12.7731 19.9997 11.5649 19.9997H2.18994Z" fill="#A56037"/>
</g>
<defs>
<clipPath id="clip0_100_1412">
<rect width="30" height="30" fill="white"/>
</clipPath>
</defs>
</svg>
