<svg width="24" height="25" viewBox="0 0 24 25" fill="none" xmlns="http://www.w3.org/2000/svg">
<g clip-path="url(#clip0_101_2133)">
<path d="M1.3598 8.57999H5.8398C5.8398 8.57999 6.3998 8.57999 6.3998 9.13999V23.7C6.3998 23.7 6.3998 24.26 5.8398 24.26H1.3598C1.3598 24.26 0.799805 24.26 0.799805 23.7V9.13999C0.799805 9.13999 0.799805 8.57999 1.3598 8.57999Z" fill="#271515"/>
<path d="M3.57743 6.33999C5.73283 6.35719 7.09863 4.03479 6.03583 2.15949C4.97303 0.284293 2.27883 0.262693 1.18623 2.12069C0.933228 2.55089 0.799828 3.04089 0.799828 3.53999C0.793628 5.08019 2.03723 6.33379 3.57743 6.33999Z" fill="#271515"/>
<path d="M19.2796 24.26H22.6396C22.9489 24.26 23.1996 24.0093 23.1996 23.7V14.292C23.1996 10.0696 20.814 8.02 17.4764 8.02C16.1398 7.9724 14.8457 8.4933 13.9148 9.4536C13.7864 9.5929 13.5829 9.6337 13.4108 9.5544C13.2375 9.4896 13.1218 9.325 13.1196 9.14C13.1196 8.8307 12.8689 8.58 12.5596 8.58H9.19965C8.89035 8.58 8.63965 8.8307 8.63965 9.14V23.7C8.63965 24.0093 8.89035 24.26 9.19965 24.26H12.5596C12.8689 24.26 13.1196 24.0093 13.1196 23.7V15.3C13.1196 13.1446 15.4529 11.7974 17.3196 12.8751C18.1859 13.3753 18.7196 14.2997 18.7196 15.3V23.7C18.7196 24.0093 18.9703 24.26 19.2796 24.26Z" fill="#271515"/>
</g>
<defs>
<clipPath id="clip0_101_2133">
<rect width="24" height="24" fill="white" transform="translate(0 0.5)"/>
</clipPath>
</defs>
</svg>
