<svg width="30" height="30" viewBox="0 0 30 30" fill="none" xmlns="http://www.w3.org/2000/svg">
<g clip-path="url(#clip0_100_1389)">
<path d="M28.75 2.5H10.625C10.2935 2.5 9.97554 2.6317 9.74112 2.86612C9.5067 3.10054 9.375 3.41848 9.375 3.75V5.625H11.875V5H18.125V9.225H16.875V9.375V11.6375H18.125V15.8625H16.875V18.275H18.125V22.5H16.35C16.0228 23.0668 15.553 23.538 14.9872 23.867C14.4214 24.1959 13.7794 24.371 13.125 24.375H9.375V26.25C9.375 26.5815 9.5067 26.8995 9.74112 27.1339C9.97554 27.3683 10.2935 27.5 10.625 27.5H28.75C29.0815 27.5 29.3995 27.3683 29.6339 27.1339C29.8683 26.8995 30 26.5815 30 26.25V3.75C30 3.41848 29.8683 3.10054 29.6339 2.86612C29.3995 2.6317 29.0815 2.5 28.75 2.5ZM27.5 22.5H21.25V18.275H27.5V22.5ZM27.5 15.8625H21.25V11.6375H27.5V15.8625ZM27.5 9.225H21.25V5H27.5V9.225Z" fill="#A56037"/>
<path d="M11.875 22.5H13.125C13.6223 22.5 14.0992 22.3025 14.4508 21.9508C14.8025 21.5992 15 21.1223 15 20.625V9.375C15 8.87772 14.8025 8.40081 14.4508 8.04917C14.0992 7.69754 13.6223 7.5 13.125 7.5H1.875C1.37772 7.5 0.900805 7.69754 0.549175 8.04917C0.197544 8.40081 0 8.87772 0 9.375L0 20.625C0 21.1223 0.197544 21.5992 0.549175 21.9508C0.900805 22.3025 1.37772 22.5 1.875 22.5H11.875ZM5.875 10.625L7.5 13.225L9.125 10.625H11.3375L8.6 15L11.3375 19.375H9.125L7.5 16.775L5.875 19.375H3.6625L6.4 15L3.6625 10.625H5.875Z" fill="#A56037"/>
</g>
<defs>
<clipPath id="clip0_100_1389">
<rect width="30" height="30" fill="white"/>
</clipPath>
</defs>
</svg>
