<svg width="461" height="382" viewBox="0 0 461 382" fill="none" xmlns="http://www.w3.org/2000/svg">
<g clip-path="url(#clip0_100_48)">
<path d="M443.86 297.908C442.576 297.903 441.316 297.557 440.205 296.904L427.885 289.674C427.536 289.472 427.246 289.179 427.044 288.825C426.842 288.472 426.735 288.07 426.735 287.661C426.735 287.252 426.842 286.851 427.044 286.497C427.246 286.143 427.536 285.851 427.885 285.648L440.205 278.418C441.322 277.762 442.59 277.417 443.881 277.417C445.171 277.417 446.439 277.762 447.557 278.418L459.845 285.616C460.194 285.819 460.484 286.111 460.686 286.465C460.888 286.819 460.995 287.22 460.995 287.629C460.995 288.038 460.888 288.439 460.686 288.793C460.484 289.147 460.194 289.439 459.845 289.642L447.525 296.872C446.414 297.538 445.15 297.895 443.86 297.908ZM443.86 279.411C442.92 279.408 441.995 279.658 441.182 280.138L428.862 287.367C428.81 287.397 428.766 287.44 428.737 287.493C428.707 287.546 428.692 287.606 428.694 287.666C428.694 287.725 428.71 287.783 428.739 287.834C428.769 287.884 428.811 287.926 428.862 287.955L441.182 295.227C441.998 295.705 442.923 295.957 443.865 295.957C444.807 295.957 445.732 295.705 446.548 295.227L458.868 287.997C458.919 287.969 458.961 287.927 458.991 287.876C459.02 287.826 459.036 287.768 459.036 287.709C459.038 287.648 459.023 287.588 458.993 287.536C458.964 287.483 458.92 287.439 458.868 287.41L446.548 280.18C445.736 279.685 444.807 279.419 443.86 279.411Z" fill="url(#paint0_linear_100_48)"/>
<path d="M408.613 256.835C406.526 256.839 404.476 256.282 402.668 255.223L381.453 242.771C380.965 242.481 380.56 242.066 380.279 241.568C379.997 241.07 379.849 240.505 379.849 239.93C379.849 239.356 379.997 238.791 380.279 238.292C380.56 237.794 380.965 237.379 381.453 237.09L402.668 224.638C404.476 223.583 406.524 223.028 408.608 223.028C410.692 223.028 412.739 223.583 414.547 224.638L435.762 237.09C436.253 237.377 436.661 237.791 436.944 238.29C437.228 238.788 437.377 239.354 437.377 239.93C437.377 240.506 437.228 241.072 436.944 241.571C436.661 242.069 436.253 242.483 435.762 242.771L414.547 255.223C412.743 256.282 410.696 256.839 408.613 256.835ZM403.645 253.504C405.155 254.385 406.866 254.849 408.608 254.849C410.349 254.849 412.06 254.385 413.57 253.504L434.785 241.052C434.973 240.945 435.13 240.791 435.241 240.603C435.351 240.416 435.412 240.202 435.416 239.984C435.413 239.765 435.353 239.551 435.242 239.363C435.131 239.176 434.974 239.021 434.785 238.916L413.57 226.453C412.06 225.571 410.349 225.108 408.608 225.108C406.866 225.108 405.155 225.571 403.645 226.453L382.43 238.916C382.243 239.023 382.086 239.178 381.976 239.365C381.866 239.552 381.805 239.765 381.8 239.984C381.807 240.201 381.868 240.414 381.979 240.601C382.089 240.788 382.244 240.943 382.43 241.052L403.645 253.504Z" fill="url(#paint1_linear_100_48)"/>
<path d="M29.2266 276.443C27.1441 276.441 25.0983 275.885 23.2926 274.83L2.07734 262.367C1.589 262.079 1.18368 261.665 0.901936 261.168C0.620189 260.67 0.471901 260.106 0.471901 259.532C0.471901 258.958 0.620189 258.394 0.901936 257.896C1.18368 257.399 1.589 256.985 2.07734 256.697L23.2926 244.245C25.0984 243.185 27.1468 242.626 29.2319 242.626C31.317 242.626 33.3654 243.185 35.1711 244.245L56.3864 256.697C56.8747 256.985 57.2801 257.399 57.5618 257.896C57.8436 258.394 57.9919 258.958 57.9919 259.532C57.9919 260.106 57.8436 260.67 57.5618 261.168C57.2801 261.665 56.8747 262.079 56.3864 262.367L35.1711 274.83C33.3622 275.886 31.3126 276.442 29.2266 276.443ZM29.2266 244.618C27.4869 244.618 25.7774 245.082 24.2694 245.964L3.05409 258.416C2.85857 258.527 2.69654 258.69 2.58548 258.887C2.47442 259.085 2.41857 259.31 2.42393 259.537C2.42689 259.756 2.48675 259.97 2.59743 260.158C2.70812 260.345 2.86567 260.5 3.05409 260.605L24.2694 273.057C25.7778 273.944 27.4895 274.411 29.2319 274.411C30.9743 274.411 32.6859 273.944 34.1944 273.057L55.4097 260.605C55.5967 260.498 55.7531 260.343 55.8636 260.156C55.974 259.969 56.0348 259.756 56.0398 259.537C56.0429 259.31 55.9861 259.086 55.8753 258.889C55.7645 258.692 55.6037 258.529 55.4097 258.416L34.1944 245.964C32.683 245.081 30.9699 244.617 29.2266 244.618Z" fill="url(#paint2_linear_100_48)"/>
<path opacity="0.6" d="M244.058 330.768L92.3684 241.714C90.1523 240.422 90.4359 238.157 92.9881 236.652L190.368 179.496C192.921 178.001 196.775 177.841 198.991 179.133L350.68 268.187C352.886 269.49 352.613 271.754 350.061 273.249L252.701 330.405C250.128 331.9 246.274 332.071 244.058 330.768Z" fill="#271515"/>
<path d="M247.534 346.851C245.872 346.89 244.227 346.496 242.756 345.708L69.6407 244.074C69.0252 243.766 68.5014 243.297 68.123 242.715C67.7446 242.133 67.5253 241.46 67.4877 240.763C67.4877 239.215 68.5379 237.709 70.3864 236.63L188.394 166.329C191.639 164.428 196.386 164.193 199.222 165.902L372.305 267.461C372.937 267.769 373.475 268.246 373.861 268.84C374.248 269.435 374.469 270.124 374.5 270.836C374.5 272.374 373.45 273.88 371.602 274.969L253.584 345.292C251.731 346.327 249.648 346.863 247.534 346.851ZM194.433 166.713C192.657 166.692 190.904 167.129 189.339 167.984L71.3316 238.296C70.1133 239.001 69.3992 239.898 69.3992 240.699C69.4478 241.057 69.5851 241.397 69.7982 241.687C70.0113 241.976 70.2932 242.206 70.6175 242.354L243.732 343.989C245.938 345.292 250.034 345.057 252.596 343.572L370.604 273.271C371.812 272.555 372.536 271.658 372.536 270.857C372.488 270.499 372.35 270.159 372.137 269.87C371.924 269.58 371.642 269.35 371.318 269.202L198.203 167.578C197.04 166.966 195.742 166.668 194.433 166.713Z" fill="url(#paint3_linear_100_48)"/>
<path d="M390.969 118.892L239.867 30.1902C239.41 29.9038 238.901 29.7162 238.369 29.639C237.838 29.5618 237.297 29.5968 236.78 29.7416L233.975 30.7241L234.963 30.9698C234.538 31.482 234.224 32.0785 234.038 32.7212L199.821 145.537C199.42 146.937 199.473 148.432 199.972 149.799C200.472 151.167 201.391 152.334 202.593 153.129L353.726 241.831C354.075 242.036 354.449 242.19 354.84 242.29L354.461 243.123L357.129 242.162C357.723 241.905 358.252 241.512 358.672 241.014C359.093 240.516 359.395 239.926 359.555 239.289L393.731 126.495C394.13 125.094 394.077 123.6 393.58 122.231C393.083 120.863 392.168 119.693 390.969 118.892Z" fill="url(#paint4_radial_100_48)"/>
<path d="M348.317 246.039L348.37 246.103L199.128 158.533C196.933 157.252 193.099 157.412 190.568 158.896L94.1433 215.496L90.9295 214.247L91.8223 218.828C91.914 219.225 92.0917 219.596 92.3425 219.913C92.5932 220.231 92.9107 220.488 93.2716 220.665L243.932 309.11C246.127 310.402 249.96 310.232 252.491 308.747L349.168 251.998C349.656 251.76 350.091 251.422 350.443 251.005C350.796 250.588 351.059 250.1 351.216 249.574L352.109 245.035L348.317 246.039Z" fill="url(#paint5_radial_100_48)"/>
<path d="M244.058 305.02L92.3684 215.966C90.1523 214.674 90.4359 212.399 92.9881 210.904L190.368 153.749C192.921 152.254 196.775 152.094 198.991 153.386L350.68 242.44C352.886 243.743 352.613 246.007 350.061 247.502L252.701 304.657C250.128 306.152 246.274 306.323 244.058 305.02Z" fill="url(#paint6_radial_100_48)"/>
<path d="M350.008 246.306L252.649 303.461C250.097 304.956 246.242 305.116 244.026 303.824L92.3684 214.77C91.7245 214.436 91.2318 213.862 90.9926 213.168C90.8556 213.725 90.919 214.313 91.1714 214.826C91.4237 215.339 91.8483 215.744 92.3684 215.966L244.058 305.02C246.274 306.323 250.128 306.152 252.68 304.657L350.008 247.502C351.689 246.519 352.361 245.195 352.004 244.042C351.649 245.029 350.935 245.84 350.008 246.306Z" fill="white"/>
<g opacity="0.4">
<path d="M164.721 201.517L159.606 198.516C159.186 198.271 159.239 197.843 159.711 197.566L165.761 194.02C166.005 193.882 166.277 193.804 166.557 193.793C166.836 193.781 167.114 193.837 167.368 193.956L172.514 196.978C172.934 197.224 172.882 197.64 172.398 197.918L166.359 201.474C166.11 201.615 165.831 201.692 165.545 201.699C165.26 201.707 164.977 201.644 164.721 201.517Z" fill="#0B1113"/>
<path d="M172.629 206.163L167.515 203.151C167.095 202.916 167.147 202.489 167.63 202.211L173.669 198.666C173.913 198.527 174.186 198.449 174.465 198.438C174.744 198.427 175.022 198.483 175.276 198.602L180.391 201.602C180.811 201.848 180.758 202.265 180.275 202.542L174.236 206.098C173.992 206.235 173.719 206.311 173.44 206.322C173.162 206.333 172.884 206.279 172.629 206.163Z" fill="#0B1113"/>
<path d="M180.538 210.861L175.423 207.85C175.003 207.615 175.056 207.188 175.539 206.91L181.578 203.365C181.822 203.228 182.094 203.149 182.373 203.137C182.651 203.124 182.929 203.176 183.185 203.29L188.299 206.301C188.719 206.536 188.667 206.963 188.184 207.241L182.145 210.787C181.901 210.924 181.629 211.002 181.35 211.015C181.071 211.028 180.793 210.975 180.538 210.861Z" fill="#0B1113"/>
<path d="M191.482 206.974L186.356 203.963C185.947 203.717 185.999 203.3 186.472 203.023L191.545 200.043C191.789 199.905 192.061 199.827 192.341 199.816C192.62 199.804 192.898 199.861 193.152 199.979L198.277 202.98C198.686 203.226 198.634 203.642 198.161 203.92L193.078 206.899C192.836 207.036 192.565 207.114 192.289 207.127C192.012 207.14 191.735 207.088 191.482 206.974Z" fill="#0B1113"/>
<path d="M199.39 211.609L194.265 208.608C193.855 208.362 193.908 207.946 194.38 207.668L199.453 204.689C199.697 204.552 199.969 204.474 200.248 204.461C200.527 204.448 200.805 204.5 201.06 204.614L206.185 207.626C206.595 207.861 206.542 208.288 206.07 208.565L200.987 211.545C200.744 211.683 200.473 211.761 200.196 211.772C199.918 211.784 199.642 211.728 199.39 211.609Z" fill="#0B1113"/>
<path d="M207.299 216.254L202.173 213.254C201.764 213.008 201.816 212.581 202.289 212.303L207.362 209.324C207.606 209.187 207.879 209.111 208.158 209.1C208.436 209.089 208.714 209.143 208.969 209.259L214.094 212.271C214.503 212.506 214.451 212.933 213.978 213.211L208.895 216.201C208.652 216.338 208.381 216.414 208.103 216.423C207.826 216.432 207.55 216.375 207.299 216.254Z" fill="#0B1113"/>
<path d="M215.207 220.9L210.082 217.888C209.672 217.653 209.725 217.226 210.197 216.949L215.27 213.969C215.514 213.83 215.787 213.752 216.066 213.741C216.345 213.73 216.623 213.786 216.877 213.905L222.002 216.906C222.412 217.151 222.359 217.568 221.887 217.856L216.804 220.836C216.561 220.972 216.29 221.048 216.013 221.06C215.736 221.071 215.46 221.016 215.207 220.9Z" fill="#0B1113"/>
<path d="M223.116 225.545L217.99 222.534C217.581 222.299 217.633 221.872 218.106 221.594L223.179 218.614C223.423 218.476 223.695 218.398 223.974 218.387C224.254 218.376 224.532 218.432 224.785 218.55L229.911 221.551C230.32 221.797 230.268 222.213 229.795 222.491L224.722 225.471C224.478 225.608 224.206 225.686 223.928 225.699C223.649 225.712 223.371 225.659 223.116 225.545Z" fill="#0B1113"/>
<path d="M231.024 230.18L225.899 227.179C225.489 226.934 225.542 226.517 226.014 226.239L231.087 223.26C231.331 223.123 231.603 223.045 231.882 223.032C232.161 223.019 232.438 223.071 232.694 223.185L237.819 226.197C238.229 226.442 238.176 226.859 237.704 227.137L232.631 230.084C232.39 230.228 232.118 230.311 231.839 230.328C231.56 230.345 231.28 230.294 231.024 230.18Z" fill="#0B1113"/>
<path d="M238.933 234.826L233.807 231.825C233.398 231.579 233.45 231.163 233.923 230.874L238.996 227.948C239.241 227.813 239.513 227.737 239.792 227.726C240.07 227.714 240.348 227.769 240.602 227.884L245.728 230.896C246.137 231.131 246.085 231.558 245.612 231.835L240.539 234.815C240.291 234.945 240.016 235.014 239.737 235.016C239.458 235.018 239.182 234.952 238.933 234.826Z" fill="#0B1113"/>
<path d="M246.841 239.471L241.716 236.492C241.306 236.257 241.359 235.829 241.831 235.552L246.904 232.572C247.148 232.434 247.421 232.356 247.7 232.345C247.979 232.333 248.257 232.389 248.511 232.508L253.636 235.509C254.046 235.755 253.993 236.182 253.521 236.459L248.448 239.439C248.201 239.573 247.927 239.645 247.648 239.651C247.369 239.656 247.092 239.595 246.841 239.471Z" fill="#0B1113"/>
<path d="M254.749 244.117L249.624 241.105C249.215 240.87 249.267 240.443 249.74 240.165L254.812 237.186C255.056 237.047 255.329 236.969 255.608 236.958C255.888 236.947 256.166 237.003 256.419 237.122L261.545 240.122C261.954 240.368 261.902 240.785 261.429 241.062L256.356 244.042C256.112 244.179 255.84 244.257 255.562 244.27C255.283 244.283 255.005 244.23 254.749 244.117Z" fill="#0B1113"/>
<path d="M262.658 248.751L257.585 245.75C257.176 245.505 257.228 245.088 257.701 244.811L262.774 241.831C263.018 241.694 263.29 241.616 263.568 241.603C263.847 241.59 264.125 241.643 264.38 241.756L269.506 244.768C269.915 245.014 269.863 245.43 269.39 245.708L264.317 248.687C264.067 248.835 263.785 248.918 263.496 248.929C263.206 248.94 262.919 248.879 262.658 248.751Z" fill="#0B1113"/>
<path d="M203.129 204.774L198.014 201.763C197.594 201.528 197.647 201.101 198.13 200.823L203.203 197.843C203.445 197.705 203.716 197.627 203.993 197.616C204.271 197.605 204.547 197.661 204.799 197.779L209.924 200.78C210.334 201.026 210.281 201.442 209.809 201.72L204.736 204.699C204.493 204.839 204.22 204.918 203.941 204.931C203.662 204.944 203.384 204.89 203.129 204.774Z" fill="#0B1113"/>
<path d="M195.105 200.065L189.98 197.053C189.57 196.808 189.623 196.391 190.095 196.113L195.168 193.134C195.412 192.995 195.685 192.917 195.964 192.906C196.243 192.895 196.521 192.951 196.775 193.07L201.9 196.071C202.31 196.316 202.257 196.733 201.785 197.01L196.67 199.99C196.431 200.12 196.167 200.195 195.896 200.208C195.625 200.221 195.355 200.172 195.105 200.065Z" fill="#0B1113"/>
<path d="M187.06 195.344L176.032 188.862C175.623 188.627 175.675 188.2 176.148 187.922L181.221 184.943C181.465 184.804 181.737 184.726 182.017 184.715C182.296 184.704 182.574 184.76 182.828 184.879L193.855 191.35C194.265 191.596 194.223 192.013 193.74 192.29L188.667 195.27C188.423 195.407 188.151 195.485 187.872 195.498C187.593 195.511 187.316 195.458 187.06 195.344Z" fill="#0B1113"/>
<path d="M192.689 189.599L183.731 184.345C183.321 184.099 183.374 183.683 183.846 183.405L188.919 180.426C189.163 180.287 189.436 180.209 189.715 180.198C189.994 180.187 190.272 180.243 190.526 180.362L199.474 185.616C199.894 185.851 199.842 186.278 199.359 186.555L194.286 189.503C194.046 189.646 193.777 189.73 193.499 189.747C193.222 189.763 192.944 189.713 192.689 189.599Z" fill="#0B1113"/>
<path d="M211.038 209.42L205.923 206.408C205.503 206.163 205.555 205.746 206.038 205.468L211.111 202.489C211.353 202.35 211.624 202.272 211.902 202.261C212.179 202.25 212.455 202.306 212.707 202.425L217.833 205.426C218.242 205.671 218.19 206.088 217.717 206.365L212.644 209.345C212.4 209.482 212.128 209.56 211.85 209.573C211.571 209.586 211.293 209.533 211.038 209.42Z" fill="#0B1113"/>
<path d="M218.946 214.065L213.831 211.064C213.411 210.819 213.464 210.402 213.947 210.125L219.02 207.145C219.262 207.008 219.532 206.93 219.809 206.917C220.086 206.904 220.362 206.957 220.616 207.07L225.741 210.082C226.151 210.317 226.098 210.744 225.626 211.022L220.553 214.001C220.309 214.14 220.036 214.218 219.757 214.229C219.478 214.24 219.2 214.184 218.946 214.065Z" fill="#0B1113"/>
<path d="M226.854 218.7L221.74 215.699C221.33 215.453 221.372 215.026 221.855 214.749L226.928 211.769C227.172 211.631 227.445 211.553 227.724 211.541C228.003 211.53 228.281 211.586 228.535 211.705L233.65 214.717C234.059 214.952 234.007 215.379 233.534 215.656L228.461 218.636C228.217 218.774 227.945 218.852 227.665 218.864C227.386 218.875 227.108 218.819 226.854 218.7Z" fill="#0B1113"/>
<path d="M234.763 223.345L229.648 220.334C229.239 220.099 229.281 219.672 229.764 219.394L234.836 216.415C235.08 216.276 235.353 216.198 235.632 216.187C235.912 216.176 236.19 216.232 236.443 216.351L241.558 219.351C241.968 219.597 241.915 220.013 241.443 220.302L236.37 223.271C236.126 223.41 235.854 223.489 235.575 223.502C235.296 223.515 235.018 223.462 234.763 223.345Z" fill="#0B1113"/>
<path d="M242.671 227.948L237.557 224.937C237.147 224.691 237.189 224.274 237.672 223.997L242.745 221.017C242.989 220.879 243.262 220.801 243.541 220.79C243.82 220.778 244.098 220.835 244.352 220.953L249.467 223.954C249.876 224.2 249.824 224.616 249.351 224.894L244.278 227.948C244.028 228.073 243.754 228.139 243.475 228.139C243.196 228.139 242.921 228.073 242.671 227.948Z" fill="#0B1113"/>
<path d="M250.58 232.626L245.465 229.625C245.056 229.379 245.098 228.963 245.581 228.685L250.653 225.706C250.898 225.568 251.17 225.49 251.448 225.477C251.727 225.465 252.005 225.517 252.26 225.631L257.375 228.642C257.785 228.877 257.732 229.304 257.26 229.582L252.187 232.562C251.943 232.7 251.67 232.778 251.391 232.789C251.112 232.8 250.834 232.744 250.58 232.626Z" fill="#0B1113"/>
<path d="M258.488 237.271L253.384 234.27C252.975 234.025 253.027 233.597 253.5 233.32L258.572 230.34C258.816 230.202 259.089 230.124 259.368 230.113C259.648 230.101 259.925 230.158 260.179 230.276L265.294 233.288C265.704 233.523 265.651 233.95 265.179 234.228L260.106 237.207C259.861 237.347 259.586 237.426 259.305 237.437C259.024 237.449 258.744 237.392 258.488 237.271Z" fill="#0B1113"/>
<path d="M266.397 241.917L261.282 238.905C260.872 238.67 260.925 238.243 261.398 237.965L266.47 234.986C266.714 234.847 266.987 234.769 267.266 234.758C267.546 234.747 267.823 234.803 268.077 234.922L273.192 237.923C273.602 238.168 273.56 238.585 273.077 238.873L268.004 241.831C267.761 241.971 267.489 242.051 267.21 242.066C266.931 242.081 266.653 242.03 266.397 241.917Z" fill="#0B1113"/>
<path d="M274.305 246.562L269.191 243.55C268.781 243.305 268.834 242.888 269.306 242.611L274.379 239.631C274.623 239.493 274.896 239.415 275.175 239.403C275.454 239.392 275.732 239.448 275.986 239.567L281.101 242.568C281.51 242.814 281.468 243.23 280.985 243.508L275.912 246.487C275.668 246.624 275.396 246.702 275.117 246.715C274.839 246.728 274.561 246.676 274.305 246.562Z" fill="#0B1113"/>
<path d="M288.368 254.817L277.194 248.239C276.784 248.004 276.837 247.577 277.309 247.299L282.382 244.319C282.626 244.181 282.899 244.103 283.178 244.092C283.457 244.081 283.735 244.137 283.989 244.255L295.164 250.812C295.573 251.058 295.521 251.474 295.048 251.752L289.975 254.732C289.732 254.87 289.46 254.95 289.182 254.965C288.903 254.98 288.625 254.929 288.368 254.817Z" fill="#0B1113"/>
<path d="M303.797 245.772L294.344 240.24C293.935 239.994 293.987 239.578 294.46 239.289L299.533 236.31C299.778 236.175 300.05 236.098 300.329 236.087C300.607 236.076 300.885 236.13 301.14 236.246L310.592 241.788C311.002 242.023 310.949 242.451 310.476 242.728L305.404 245.708C305.16 245.846 304.887 245.924 304.608 245.935C304.329 245.947 304.051 245.89 303.797 245.772Z" fill="#0B1113"/>
<path d="M224.891 208.501L219.776 205.522C219.366 205.276 219.419 204.86 219.891 204.582L224.964 201.602C225.208 201.465 225.48 201.387 225.759 201.374C226.038 201.361 226.315 201.414 226.571 201.528L231.696 204.539C232.106 204.785 232.053 205.201 231.581 205.479L226.508 208.459C226.261 208.595 225.986 208.671 225.704 208.678C225.423 208.686 225.144 208.625 224.891 208.501Z" fill="#0B1113"/>
<path d="M216.782 203.749L211.668 200.737C211.248 200.503 211.3 200.075 211.783 199.798L216.856 196.818C217.098 196.68 217.369 196.602 217.647 196.591C217.924 196.579 218.2 196.635 218.452 196.754L223.578 199.755C223.987 200.001 223.935 200.428 223.462 200.705L218.389 203.685C218.145 203.821 217.872 203.898 217.593 203.909C217.315 203.92 217.037 203.865 216.782 203.749Z" fill="#0B1113"/>
<path d="M208.674 198.986L203.56 195.985C203.15 195.74 203.203 195.323 203.675 195.045L208.748 192.066C208.992 191.929 209.264 191.851 209.543 191.838C209.822 191.825 210.099 191.877 210.355 191.991L215.47 195.003C215.879 195.238 215.837 195.665 215.354 195.942L210.323 198.922C210.074 199.068 209.794 199.15 209.507 199.161C209.219 199.172 208.934 199.112 208.674 198.986Z" fill="#0B1113"/>
<path d="M200.577 194.234L195.452 191.222C195.042 190.987 195.095 190.56 195.567 190.282L200.64 187.303C200.884 187.164 201.157 187.086 201.436 187.075C201.715 187.064 201.993 187.12 202.247 187.239L207.372 190.24C207.782 190.485 207.729 190.902 207.257 191.18L202.173 194.159C201.931 194.296 201.661 194.374 201.384 194.387C201.107 194.4 200.831 194.347 200.577 194.234Z" fill="#0B1113"/>
<path d="M232.799 213.147L227.674 210.146C227.264 209.9 227.317 209.484 227.789 209.206L232.862 206.227C233.105 206.087 233.378 206.008 233.657 205.995C233.936 205.982 234.214 206.036 234.469 206.152L239.594 209.163C240.004 209.398 239.951 209.825 239.479 210.103L234.406 213.083C234.162 213.221 233.889 213.299 233.61 213.31C233.331 213.321 233.053 213.265 232.799 213.147Z" fill="#0B1113"/>
<path d="M240.707 217.792L235.582 214.781C235.173 214.546 235.225 214.119 235.698 213.841L240.781 210.861C241.025 210.723 241.298 210.645 241.577 210.634C241.856 210.623 242.134 210.679 242.388 210.797L247.513 213.809C247.923 214.044 247.87 214.471 247.398 214.749L242.325 217.728C242.08 217.868 241.805 217.947 241.524 217.959C241.243 217.97 240.963 217.913 240.707 217.792Z" fill="#0B1113"/>
<path d="M248.616 222.438L243.491 219.405C243.081 219.17 243.134 218.743 243.606 218.465L248.689 215.485C248.932 215.347 249.203 215.269 249.48 215.258C249.758 215.247 250.034 215.303 250.286 215.421L255.411 218.422C255.821 218.668 255.768 219.084 255.296 219.362L250.233 222.363C249.989 222.504 249.715 222.584 249.433 222.597C249.152 222.61 248.872 222.556 248.616 222.438Z" fill="#0B1113"/>
<path d="M256.535 227.083L251.41 224.072C251 223.826 251.053 223.409 251.525 223.132L256.608 220.152C256.851 220.014 257.122 219.936 257.399 219.925C257.677 219.914 257.953 219.97 258.205 220.088L263.33 223.089C263.74 223.335 263.687 223.751 263.215 224.029L258.142 227.008C257.898 227.145 257.626 227.223 257.347 227.236C257.068 227.249 256.79 227.197 256.535 227.083Z" fill="#0B1113"/>
<path d="M264.433 231.718L259.308 228.717C258.898 228.471 258.951 228.055 259.423 227.777L264.506 224.798C264.748 224.658 265.018 224.578 265.296 224.565C265.573 224.552 265.85 224.606 266.103 224.723L271.239 227.735C271.648 227.97 271.596 228.397 271.123 228.674L266.05 231.654C265.805 231.794 265.53 231.873 265.249 231.884C264.968 231.895 264.688 231.838 264.433 231.718Z" fill="#0B1113"/>
<path d="M272.341 236.363L267.216 233.352C266.807 233.117 266.859 232.69 267.332 232.412L272.415 229.433C272.657 229.294 272.928 229.216 273.206 229.205C273.483 229.194 273.759 229.25 274.011 229.368L279.137 232.38C279.546 232.615 279.494 233.042 279.021 233.32L273.948 236.299C273.704 236.438 273.432 236.516 273.152 236.527C272.873 236.538 272.595 236.482 272.341 236.363Z" fill="#0B1113"/>
<path d="M280.25 241.009L275.125 237.997C274.715 237.762 274.768 237.335 275.24 237.058L280.323 234.078C280.565 233.94 280.836 233.862 281.114 233.85C281.392 233.839 281.668 233.895 281.92 234.014L287.045 237.015C287.455 237.26 287.402 237.677 286.93 237.965L281.857 240.934C281.613 241.073 281.341 241.153 281.062 241.166C280.783 241.179 280.505 241.125 280.25 241.009Z" fill="#0B1113"/>
<path d="M288.158 245.654L283.044 242.643C282.623 242.397 282.676 241.981 283.149 241.703L288.232 238.723C288.474 238.585 288.745 238.507 289.022 238.496C289.3 238.485 289.576 238.541 289.828 238.659L294.954 241.66C295.363 241.906 295.311 242.322 294.838 242.6L289.765 245.58C289.521 245.717 289.249 245.795 288.97 245.808C288.692 245.821 288.414 245.768 288.158 245.654Z" fill="#0B1113"/>
<path d="M296.067 250.289L290.952 247.288C290.532 247.043 290.584 246.626 291.068 246.348L296.14 243.369C296.383 243.232 296.653 243.154 296.93 243.141C297.207 243.128 297.483 243.181 297.737 243.294L302.862 246.306C303.272 246.541 303.219 246.968 302.746 247.246L297.674 250.225C297.43 250.364 297.157 250.442 296.878 250.453C296.599 250.464 296.321 250.408 296.067 250.289Z" fill="#0B1113"/>
<path d="M220.721 196.978L215.575 194.02C215.165 193.775 215.218 193.347 215.69 193.07L220.763 190.09C221.008 189.954 221.28 189.878 221.559 189.866C221.838 189.855 222.115 189.91 222.37 190.026L227.485 193.038C227.894 193.273 227.852 193.7 227.369 193.978L222.328 196.978C222.079 197.107 221.804 197.174 221.524 197.174C221.245 197.174 220.97 197.107 220.721 196.978Z" fill="#0B1113"/>
<path d="M212.855 192.408L207.74 189.396C207.32 189.151 207.372 188.734 207.845 188.456L212.928 185.477C213.17 185.338 213.441 185.26 213.719 185.249C213.996 185.238 214.272 185.294 214.524 185.413L219.65 188.414C220.059 188.659 220.007 189.076 219.534 189.353L214.461 192.333C214.217 192.47 213.945 192.548 213.667 192.561C213.388 192.574 213.11 192.521 212.855 192.408Z" fill="#0B1113"/>
<path d="M204.988 187.784L199.821 184.772C199.411 184.537 199.464 184.11 199.936 183.832L205.072 180.853C205.316 180.714 205.589 180.636 205.868 180.625C206.147 180.614 206.425 180.67 206.679 180.789L211.804 183.79C212.214 184.035 212.161 184.462 211.689 184.74L206.616 187.719C206.369 187.862 206.093 187.942 205.81 187.953C205.526 187.964 205.245 187.906 204.988 187.784Z" fill="#0B1113"/>
<path d="M197.122 183.159L191.996 180.159C191.587 179.913 191.639 179.496 192.112 179.219L197.185 176.239C197.429 176.102 197.701 176.024 197.979 176.011C198.258 175.998 198.536 176.051 198.791 176.165L203.906 179.176C204.326 179.411 204.274 179.838 203.791 180.116L198.77 183.095C198.522 183.243 198.241 183.326 197.954 183.337C197.666 183.348 197.38 183.287 197.122 183.159Z" fill="#0B1113"/>
<path d="M205.209 178.407L200.083 175.406C199.674 175.161 199.726 174.744 200.199 174.467L201.921 173.484C202.165 173.345 202.437 173.265 202.716 173.252C202.995 173.239 203.273 173.293 203.528 173.409L208.643 176.421C209.063 176.656 209.011 177.083 208.538 177.361L206.858 178.343C206.608 178.489 206.328 178.571 206.041 178.582C205.754 178.593 205.468 178.533 205.209 178.407Z" fill="#0B1113"/>
<path d="M215.48 184.441L210.323 181.429C209.914 181.194 209.966 180.767 210.439 180.49L212.119 179.507C212.363 179.369 212.636 179.291 212.915 179.279C213.194 179.268 213.472 179.324 213.726 179.443L218.841 182.444C219.251 182.69 219.209 183.106 218.725 183.384L217.056 184.377C216.816 184.51 216.549 184.585 216.275 184.597C216.002 184.608 215.73 184.554 215.48 184.441Z" fill="#0B1113"/>
<path d="M223.315 189.044L218.19 186.032C217.78 185.797 217.833 185.37 218.305 185.092L219.986 184.11C220.23 183.971 220.502 183.893 220.782 183.882C221.061 183.871 221.339 183.927 221.593 184.046L226.707 187.047C227.128 187.292 227.075 187.709 226.602 187.986L224.922 188.969C224.679 189.108 224.406 189.188 224.127 189.201C223.848 189.214 223.57 189.16 223.315 189.044Z" fill="#0B1113"/>
<path d="M231.15 193.646L226.077 190.635C225.657 190.389 225.71 189.973 226.193 189.695L227.863 188.713C228.107 188.576 228.379 188.498 228.658 188.485C228.936 188.472 229.214 188.524 229.47 188.638L234.595 191.649C235.005 191.884 234.952 192.312 234.479 192.589L232.799 193.572C232.549 193.716 232.27 193.797 231.983 193.81C231.697 193.823 231.411 193.767 231.15 193.646Z" fill="#0B1113"/>
<path d="M238.985 198.239L233.87 195.238C233.461 194.992 233.503 194.576 233.986 194.298L235.656 193.305C235.901 193.169 236.173 193.093 236.452 193.082C236.73 193.071 237.008 193.125 237.263 193.241L242.388 196.252C242.798 196.487 242.745 196.914 242.272 197.192L240.592 198.174C240.348 198.313 240.075 198.391 239.796 198.402C239.517 198.413 239.239 198.357 238.985 198.239Z" fill="#0B1113"/>
<path d="M282.791 223.922L277.666 220.921C277.257 220.676 277.309 220.259 277.782 219.981L279.462 218.999C279.706 218.86 279.978 218.78 280.257 218.767C280.536 218.754 280.814 218.808 281.069 218.924L286.184 221.936C286.604 222.171 286.551 222.598 286.068 222.876L284.398 223.858C284.154 223.997 283.882 224.075 283.602 224.086C283.323 224.097 283.045 224.041 282.791 223.922Z" fill="#0B1113"/>
<path d="M290.574 228.525L285.459 225.524C285.039 225.278 285.092 224.862 285.575 224.584L287.245 223.591C287.489 223.452 287.761 223.374 288.041 223.363C288.32 223.352 288.598 223.408 288.851 223.527L293.977 226.538C294.386 226.773 294.334 227.201 293.861 227.478L292.181 228.461C291.937 228.599 291.664 228.677 291.385 228.688C291.106 228.7 290.828 228.644 290.574 228.525Z" fill="#0B1113"/>
<path d="M298.409 233.128L293.294 230.084C292.885 229.838 292.927 229.411 293.41 229.134L295.08 228.151C295.324 228.013 295.596 227.934 295.875 227.923C296.155 227.912 296.433 227.968 296.686 228.087L301.812 231.088C302.221 231.333 302.169 231.75 301.696 232.028L300.016 233.021C299.775 233.166 299.504 233.252 299.225 233.27C298.946 233.289 298.666 233.24 298.409 233.128Z" fill="#0B1113"/>
<path d="M306.254 237.73L301.129 234.719C300.719 234.484 300.772 234.057 301.245 233.779L302.925 232.797C303.167 232.658 303.438 232.58 303.716 232.569C303.993 232.558 304.269 232.614 304.521 232.732L309.647 235.733C310.056 235.979 310.004 236.395 309.531 236.673L307.851 237.666C307.608 237.802 307.337 237.879 307.06 237.89C306.783 237.901 306.507 237.846 306.254 237.73Z" fill="#0B1113"/>
<path d="M228.629 201.667L223.515 198.655C223.105 198.42 223.158 197.993 223.63 197.715L228.703 194.736C228.947 194.597 229.22 194.519 229.499 194.508C229.778 194.497 230.056 194.553 230.31 194.672L235.425 197.673C235.834 197.918 235.792 198.335 235.309 198.623L230.278 201.602C230.028 201.746 229.748 201.826 229.462 201.837C229.175 201.848 228.89 201.79 228.629 201.667Z" fill="#0B1113"/>
<path d="M236.58 206.312L231.465 203.3C231.056 203.055 231.108 202.638 231.581 202.361L236.653 199.381C236.897 199.243 237.17 199.165 237.449 199.154C237.729 199.142 238.006 199.198 238.26 199.317L243.375 202.318C243.785 202.564 243.743 202.98 243.26 203.258L238.187 206.237C237.943 206.374 237.671 206.452 237.392 206.465C237.113 206.478 236.835 206.426 236.58 206.312Z" fill="#0B1113"/>
<path d="M244.446 210.947L239.332 207.946C238.922 207.7 238.975 207.284 239.447 207.006L244.52 204.027C244.764 203.89 245.036 203.812 245.315 203.799C245.593 203.786 245.871 203.838 246.127 203.952L251.242 206.963C251.662 207.209 251.609 207.626 251.126 207.903L246.032 210.861C245.793 211 245.525 211.08 245.249 211.095C244.974 211.109 244.699 211.059 244.446 210.947Z" fill="#0B1113"/>
<path d="M252.334 215.592L247.209 212.591C246.799 212.346 246.852 211.929 247.324 211.641L252.397 208.661C252.642 208.525 252.914 208.449 253.193 208.438C253.472 208.426 253.749 208.481 254.004 208.597L259.119 211.609C259.539 211.844 259.486 212.271 259.003 212.549L253.93 215.528C253.688 215.667 253.417 215.745 253.14 215.756C252.862 215.767 252.586 215.711 252.334 215.592Z" fill="#0B1113"/>
<path d="M260.274 220.238L255.149 217.269C254.739 217.034 254.792 216.607 255.264 216.329L260.337 213.35C260.581 213.211 260.854 213.133 261.133 213.122C261.412 213.111 261.69 213.167 261.944 213.286L267.038 216.201C267.458 216.447 267.405 216.874 266.922 217.151L261.849 220.131C261.613 220.273 261.348 220.356 261.074 220.375C260.8 220.393 260.526 220.346 260.274 220.238Z" fill="#0B1113"/>
<path d="M268.182 224.883L263.057 221.872C262.647 221.637 262.7 221.21 263.173 220.932L268.245 217.952C268.489 217.814 268.762 217.736 269.041 217.725C269.32 217.714 269.598 217.77 269.852 217.888L274.967 220.889C275.387 221.135 275.335 221.551 274.852 221.829L269.779 224.808C269.536 224.945 269.266 225.023 268.989 225.036C268.712 225.049 268.436 224.997 268.182 224.883Z" fill="#0B1113"/>
<path d="M276.091 229.518L270.966 226.517C270.556 226.272 270.608 225.855 271.081 225.577L276.154 222.598C276.398 222.461 276.67 222.383 276.949 222.37C277.227 222.357 277.505 222.409 277.761 222.523L282.875 225.535C283.296 225.78 283.243 226.197 282.76 226.474L277.687 229.454C277.445 229.592 277.174 229.67 276.897 229.682C276.619 229.693 276.343 229.637 276.091 229.518Z" fill="#0B1113"/>
<path d="M283.999 234.163L278.874 231.152C278.464 230.906 278.517 230.49 278.99 230.201L284.062 227.233C284.306 227.093 284.578 227.014 284.857 227.001C285.136 226.988 285.414 227.042 285.669 227.158L290.784 230.169C291.204 230.404 291.152 230.832 290.679 231.109L285.596 234.089C285.354 234.229 285.084 234.309 284.806 234.322C284.529 234.335 284.252 234.28 283.999 234.163Z" fill="#0B1113"/>
<path d="M291.908 238.809L286.782 235.797C286.373 235.562 286.425 235.135 286.898 234.858L291.971 231.878C292.215 231.74 292.487 231.662 292.767 231.65C293.046 231.639 293.324 231.695 293.578 231.814L298.703 234.815C299.113 235.061 299.06 235.488 298.587 235.765L293.504 238.745C293.262 238.883 292.991 238.961 292.714 238.972C292.436 238.984 292.16 238.928 291.908 238.809Z" fill="#0B1113"/>
<path d="M183.416 202.243L168.313 193.379C167.903 193.145 167.956 192.717 168.428 192.44L173.564 189.503C173.808 189.364 174.081 189.286 174.36 189.275C174.639 189.264 174.917 189.32 175.171 189.439L190.253 198.292C190.662 198.538 190.61 198.954 190.137 199.232L185.065 202.211C184.812 202.348 184.53 202.423 184.244 202.428C183.957 202.434 183.674 202.371 183.416 202.243Z" fill="#0B1113"/>
<path d="M280.575 259.281L265.494 250.428C265.084 250.182 265.137 249.755 265.609 249.477L270.682 246.498C270.926 246.359 271.199 246.281 271.478 246.27C271.757 246.259 272.035 246.315 272.289 246.434L287.371 255.287C287.78 255.533 287.728 255.949 287.255 256.227L282.182 259.206C281.938 259.343 281.666 259.421 281.387 259.434C281.109 259.447 280.831 259.395 280.575 259.281Z" fill="#0B1113"/>
<path d="M248.952 250.962L243.827 247.961C243.417 247.715 243.47 247.299 243.942 247.021L249.992 243.465C250.236 243.327 250.508 243.248 250.788 243.237C251.067 243.226 251.345 243.282 251.599 243.401L256.713 246.413C257.123 246.647 257.071 247.075 256.598 247.352L250.559 250.898C250.315 251.036 250.042 251.114 249.763 251.125C249.484 251.137 249.206 251.081 248.952 250.962Z" fill="#0B1113"/>
<path d="M191.513 217.269L183.332 212.463C182.912 212.218 182.964 211.801 183.447 211.523L189.486 207.967C189.73 207.829 190.003 207.751 190.282 207.74C190.561 207.728 190.839 207.785 191.093 207.903L199.285 212.709C199.695 212.955 199.642 213.371 199.17 213.649L193.12 217.205C192.876 217.343 192.603 217.421 192.324 217.433C192.045 217.444 191.767 217.388 191.513 217.269Z" fill="#0B1113"/>
<path d="M241.327 246.487L233.146 241.682C232.725 241.447 232.778 241.02 233.261 240.742L239.3 237.196C239.544 237.059 239.816 236.981 240.095 236.968C240.374 236.955 240.652 237.008 240.907 237.122L249.099 241.938C249.509 242.173 249.456 242.6 248.984 242.878L242.934 246.423C242.69 246.562 242.417 246.64 242.138 246.651C241.859 246.662 241.581 246.606 241.327 246.487Z" fill="#0B1113"/>
<path d="M202.972 223.943L194.78 219.138C194.37 218.903 194.422 218.476 194.895 218.198L200.945 214.653C201.187 214.516 201.457 214.438 201.734 214.425C202.011 214.412 202.287 214.464 202.541 214.578L210.733 219.394C211.143 219.629 211.09 220.056 210.617 220.334L204.578 223.879C204.334 224.018 204.062 224.096 203.783 224.107C203.503 224.118 203.225 224.062 202.972 223.943Z" fill="#0B1113"/>
<path d="M202.562 214.61L238.166 235.52C238.265 235.55 238.352 235.613 238.413 235.697C238.475 235.782 238.508 235.884 238.508 235.99C238.508 236.095 238.475 236.197 238.413 236.282C238.352 236.367 238.265 236.429 238.166 236.459L232.001 240.08C231.753 240.206 231.48 240.273 231.203 240.273C230.925 240.273 230.652 240.206 230.404 240.08L194.79 219.17L202.562 214.61Z" fill="#0B1113"/>
<path d="M271.06 259.388L276.763 262.73C277.099 262.933 277.057 263.275 276.668 263.499L274.19 264.952C273.991 265.066 273.769 265.131 273.541 265.142C273.313 265.154 273.086 265.11 272.877 265.016L267.174 261.662C266.838 261.47 266.88 261.118 267.269 260.894L269.737 259.441C269.937 259.325 270.162 259.26 270.392 259.25C270.622 259.241 270.851 259.288 271.06 259.388Z" fill="#0B1113"/>
<path d="M263.078 254.7L268.781 258.053C269.117 258.245 269.075 258.598 268.686 258.822L266.218 260.274C266.019 260.388 265.796 260.452 265.568 260.461C265.34 260.47 265.113 260.424 264.906 260.328L259.203 256.985C258.867 256.782 258.909 256.44 259.297 256.205L261.786 254.753C261.984 254.646 262.203 254.586 262.426 254.577C262.65 254.567 262.873 254.609 263.078 254.7Z" fill="#0B1113"/>
<path d="M255.17 250.054L260.873 253.407C261.209 253.61 261.167 253.952 260.778 254.176L258.31 255.629C258.112 255.745 257.889 255.81 257.66 255.819C257.431 255.829 257.204 255.782 256.997 255.682L251.284 252.339C250.937 252.137 250.99 251.795 251.378 251.571L253.846 250.118C254.046 250.002 254.27 249.936 254.5 249.925C254.73 249.914 254.96 249.958 255.17 250.054Z" fill="#0B1113"/>
<path d="M267.447 252.137L273.15 255.49C273.486 255.682 273.444 256.035 273.056 256.259L270.587 257.711C270.388 257.825 270.165 257.889 269.937 257.898C269.709 257.907 269.482 257.861 269.275 257.765L263.561 254.422C263.225 254.219 263.267 253.877 263.656 253.642L266.134 252.19C266.335 252.08 266.557 252.018 266.785 252.008C267.012 251.999 267.239 252.043 267.447 252.137Z" fill="#0B1113"/>
</g>
<g opacity="0.4">
<path d="M164.721 201.517L159.606 198.516C159.186 198.271 159.239 197.843 159.711 197.566L165.761 194.02C166.005 193.882 166.277 193.804 166.557 193.793C166.836 193.781 167.114 193.837 167.368 193.956L172.514 196.978C172.934 197.224 172.882 197.64 172.398 197.918L166.359 201.474C166.11 201.615 165.831 201.692 165.545 201.699C165.26 201.707 164.977 201.644 164.721 201.517Z" fill="#0B1113"/>
<path d="M172.629 206.163L167.515 203.151C167.095 202.916 167.147 202.489 167.63 202.211L173.669 198.666C173.913 198.527 174.186 198.449 174.465 198.438C174.744 198.427 175.022 198.483 175.276 198.602L180.391 201.602C180.811 201.848 180.758 202.265 180.275 202.542L174.236 206.098C173.992 206.235 173.719 206.311 173.44 206.322C173.162 206.333 172.884 206.279 172.629 206.163Z" fill="#0B1113"/>
<path d="M180.538 210.861L175.423 207.85C175.003 207.615 175.056 207.188 175.539 206.91L181.578 203.365C181.822 203.228 182.094 203.149 182.373 203.137C182.651 203.124 182.929 203.176 183.185 203.29L188.299 206.301C188.719 206.536 188.667 206.963 188.184 207.241L182.145 210.787C181.901 210.924 181.629 211.002 181.35 211.015C181.071 211.028 180.793 210.975 180.538 210.861Z" fill="#0B1113"/>
<path d="M191.482 206.974L186.356 203.963C185.947 203.717 185.999 203.3 186.472 203.023L191.545 200.043C191.789 199.905 192.061 199.827 192.341 199.816C192.62 199.804 192.898 199.861 193.152 199.979L198.277 202.98C198.686 203.226 198.634 203.642 198.161 203.92L193.078 206.899C192.836 207.036 192.565 207.114 192.289 207.127C192.012 207.14 191.735 207.088 191.482 206.974Z" fill="#0B1113"/>
<path d="M199.39 211.609L194.265 208.608C193.855 208.362 193.908 207.946 194.38 207.668L199.453 204.689C199.697 204.552 199.969 204.474 200.248 204.461C200.527 204.448 200.805 204.5 201.06 204.614L206.185 207.626C206.595 207.861 206.542 208.288 206.07 208.565L200.987 211.545C200.744 211.683 200.473 211.761 200.196 211.772C199.918 211.784 199.642 211.728 199.39 211.609Z" fill="#0B1113"/>
<path d="M207.299 216.254L202.173 213.254C201.764 213.008 201.816 212.581 202.289 212.303L207.362 209.324C207.606 209.187 207.879 209.111 208.158 209.1C208.436 209.089 208.714 209.143 208.969 209.259L214.094 212.271C214.503 212.506 214.451 212.933 213.978 213.211L208.895 216.201C208.652 216.338 208.381 216.414 208.103 216.423C207.826 216.432 207.55 216.375 207.299 216.254Z" fill="#0B1113"/>
<path d="M215.207 220.9L210.082 217.888C209.672 217.653 209.725 217.226 210.197 216.949L215.27 213.969C215.514 213.83 215.787 213.752 216.066 213.741C216.345 213.73 216.623 213.786 216.877 213.905L222.002 216.906C222.412 217.151 222.359 217.568 221.887 217.856L216.804 220.836C216.561 220.972 216.29 221.048 216.013 221.06C215.736 221.071 215.46 221.016 215.207 220.9Z" fill="#0B1113"/>
<path d="M223.116 225.545L217.99 222.534C217.581 222.299 217.633 221.872 218.106 221.594L223.179 218.614C223.423 218.476 223.695 218.398 223.974 218.387C224.254 218.376 224.532 218.432 224.785 218.55L229.911 221.551C230.32 221.797 230.268 222.213 229.795 222.491L224.722 225.471C224.478 225.608 224.206 225.686 223.928 225.699C223.649 225.712 223.371 225.659 223.116 225.545Z" fill="#0B1113"/>
<path d="M231.024 230.18L225.899 227.179C225.489 226.934 225.542 226.517 226.014 226.239L231.087 223.26C231.331 223.123 231.603 223.045 231.882 223.032C232.161 223.019 232.438 223.071 232.694 223.185L237.819 226.197C238.229 226.442 238.176 226.859 237.704 227.137L232.631 230.084C232.39 230.228 232.118 230.311 231.839 230.328C231.56 230.345 231.28 230.294 231.024 230.18Z" fill="#0B1113"/>
<path d="M238.933 234.826L233.807 231.825C233.398 231.579 233.45 231.163 233.923 230.874L238.996 227.948C239.241 227.813 239.513 227.737 239.792 227.726C240.07 227.714 240.348 227.769 240.602 227.884L245.728 230.896C246.137 231.131 246.085 231.558 245.612 231.835L240.539 234.815C240.291 234.945 240.016 235.014 239.737 235.016C239.458 235.018 239.182 234.952 238.933 234.826Z" fill="#0B1113"/>
<path d="M246.841 239.471L241.716 236.492C241.306 236.257 241.359 235.829 241.831 235.552L246.904 232.572C247.148 232.434 247.421 232.356 247.7 232.345C247.979 232.333 248.257 232.389 248.511 232.508L253.636 235.509C254.046 235.755 253.993 236.182 253.521 236.459L248.448 239.439C248.201 239.573 247.927 239.645 247.648 239.651C247.369 239.656 247.092 239.595 246.841 239.471Z" fill="#0B1113"/>
<path d="M254.749 244.117L249.624 241.105C249.215 240.87 249.267 240.443 249.74 240.165L254.812 237.186C255.056 237.047 255.329 236.969 255.608 236.958C255.888 236.947 256.166 237.003 256.419 237.122L261.545 240.122C261.954 240.368 261.902 240.785 261.429 241.062L256.356 244.042C256.112 244.179 255.84 244.257 255.562 244.27C255.283 244.283 255.005 244.23 254.749 244.117Z" fill="#0B1113"/>
<path d="M262.658 248.751L257.585 245.75C257.176 245.505 257.228 245.088 257.701 244.811L262.774 241.831C263.018 241.694 263.29 241.616 263.568 241.603C263.847 241.59 264.125 241.643 264.38 241.756L269.506 244.768C269.915 245.014 269.863 245.43 269.39 245.708L264.317 248.687C264.067 248.835 263.785 248.918 263.496 248.929C263.206 248.94 262.919 248.879 262.658 248.751Z" fill="#0B1113"/>
<path d="M203.129 204.774L198.014 201.763C197.594 201.528 197.647 201.101 198.13 200.823L203.203 197.843C203.445 197.705 203.716 197.627 203.993 197.616C204.271 197.605 204.547 197.661 204.799 197.779L209.924 200.78C210.334 201.026 210.281 201.442 209.809 201.72L204.736 204.699C204.493 204.839 204.22 204.918 203.941 204.931C203.662 204.944 203.384 204.89 203.129 204.774Z" fill="#0B1113"/>
<path d="M195.105 200.065L189.98 197.053C189.57 196.808 189.623 196.391 190.095 196.113L195.168 193.134C195.412 192.995 195.685 192.917 195.964 192.906C196.243 192.895 196.521 192.951 196.775 193.07L201.9 196.071C202.31 196.316 202.257 196.733 201.785 197.01L196.67 199.99C196.431 200.12 196.167 200.195 195.896 200.208C195.625 200.221 195.355 200.172 195.105 200.065Z" fill="#0B1113"/>
<path d="M187.06 195.344L176.032 188.862C175.623 188.627 175.675 188.2 176.148 187.922L181.221 184.943C181.465 184.804 181.737 184.726 182.017 184.715C182.296 184.704 182.574 184.76 182.828 184.879L193.855 191.35C194.265 191.596 194.223 192.013 193.74 192.29L188.667 195.27C188.423 195.407 188.151 195.485 187.872 195.498C187.593 195.511 187.316 195.458 187.06 195.344Z" fill="#0B1113"/>
<path d="M192.689 189.599L183.731 184.345C183.321 184.099 183.374 183.683 183.846 183.405L188.919 180.426C189.163 180.287 189.436 180.209 189.715 180.198C189.994 180.187 190.272 180.243 190.526 180.362L199.474 185.616C199.894 185.851 199.842 186.278 199.359 186.555L194.286 189.503C194.046 189.646 193.777 189.73 193.499 189.747C193.222 189.763 192.944 189.713 192.689 189.599Z" fill="#0B1113"/>
<path d="M211.038 209.42L205.923 206.408C205.503 206.163 205.555 205.746 206.038 205.468L211.111 202.489C211.353 202.35 211.624 202.272 211.902 202.261C212.179 202.25 212.455 202.306 212.707 202.425L217.833 205.426C218.242 205.671 218.19 206.088 217.717 206.365L212.644 209.345C212.4 209.482 212.128 209.56 211.85 209.573C211.571 209.586 211.293 209.533 211.038 209.42Z" fill="#0B1113"/>
<path d="M218.946 214.065L213.831 211.064C213.411 210.819 213.464 210.402 213.947 210.125L219.02 207.145C219.262 207.008 219.532 206.93 219.809 206.917C220.086 206.904 220.362 206.957 220.616 207.07L225.741 210.082C226.151 210.317 226.098 210.744 225.626 211.022L220.553 214.001C220.309 214.14 220.036 214.218 219.757 214.229C219.478 214.24 219.2 214.184 218.946 214.065Z" fill="#0B1113"/>
<path d="M226.854 218.7L221.74 215.699C221.33 215.453 221.372 215.026 221.855 214.749L226.928 211.769C227.172 211.631 227.445 211.553 227.724 211.541C228.003 211.53 228.281 211.586 228.535 211.705L233.65 214.717C234.059 214.952 234.007 215.379 233.534 215.656L228.461 218.636C228.217 218.774 227.945 218.852 227.665 218.864C227.386 218.875 227.108 218.819 226.854 218.7Z" fill="#0B1113"/>
<path d="M234.763 223.345L229.648 220.334C229.239 220.099 229.281 219.672 229.764 219.394L234.836 216.415C235.08 216.276 235.353 216.198 235.632 216.187C235.912 216.176 236.19 216.232 236.443 216.351L241.558 219.351C241.968 219.597 241.915 220.013 241.443 220.302L236.37 223.271C236.126 223.41 235.854 223.489 235.575 223.502C235.296 223.515 235.018 223.462 234.763 223.345Z" fill="#0B1113"/>
<path d="M242.671 227.948L237.557 224.937C237.147 224.691 237.189 224.274 237.672 223.997L242.745 221.017C242.989 220.879 243.262 220.801 243.541 220.79C243.82 220.778 244.098 220.835 244.352 220.953L249.467 223.954C249.876 224.2 249.824 224.616 249.351 224.894L244.278 227.948C244.028 228.073 243.754 228.139 243.475 228.139C243.196 228.139 242.921 228.073 242.671 227.948Z" fill="#0B1113"/>
<path d="M250.58 232.626L245.465 229.625C245.056 229.379 245.098 228.963 245.581 228.685L250.653 225.706C250.898 225.568 251.17 225.49 251.448 225.477C251.727 225.465 252.005 225.517 252.26 225.631L257.375 228.642C257.785 228.877 257.732 229.304 257.26 229.582L252.187 232.562C251.943 232.7 251.67 232.778 251.391 232.789C251.112 232.8 250.834 232.744 250.58 232.626Z" fill="#0B1113"/>
<path d="M258.488 237.271L253.384 234.27C252.975 234.025 253.027 233.597 253.5 233.32L258.572 230.34C258.816 230.202 259.089 230.124 259.368 230.113C259.648 230.101 259.925 230.158 260.179 230.276L265.294 233.288C265.704 233.523 265.651 233.95 265.179 234.228L260.106 237.207C259.861 237.347 259.586 237.426 259.305 237.437C259.024 237.449 258.744 237.392 258.488 237.271Z" fill="#0B1113"/>
<path d="M266.397 241.917L261.282 238.905C260.872 238.67 260.925 238.243 261.398 237.965L266.47 234.986C266.714 234.847 266.987 234.769 267.266 234.758C267.546 234.747 267.823 234.803 268.077 234.922L273.192 237.923C273.602 238.168 273.56 238.585 273.077 238.873L268.004 241.831C267.761 241.971 267.489 242.051 267.21 242.066C266.931 242.081 266.653 242.03 266.397 241.917Z" fill="#0B1113"/>
<path d="M274.305 246.562L269.191 243.55C268.781 243.305 268.834 242.888 269.306 242.611L274.379 239.631C274.623 239.493 274.896 239.415 275.175 239.403C275.454 239.392 275.732 239.448 275.986 239.567L281.101 242.568C281.51 242.814 281.468 243.23 280.985 243.508L275.912 246.487C275.668 246.624 275.396 246.702 275.117 246.715C274.839 246.728 274.561 246.676 274.305 246.562Z" fill="#0B1113"/>
<path d="M288.368 254.817L277.194 248.239C276.784 248.004 276.837 247.577 277.309 247.299L282.382 244.319C282.626 244.181 282.899 244.103 283.178 244.092C283.457 244.081 283.735 244.137 283.989 244.255L295.164 250.812C295.573 251.058 295.521 251.474 295.048 251.752L289.975 254.732C289.732 254.87 289.46 254.95 289.182 254.965C288.903 254.98 288.625 254.929 288.368 254.817Z" fill="#0B1113"/>
<path d="M303.797 245.772L294.344 240.24C293.935 239.994 293.987 239.578 294.46 239.289L299.533 236.31C299.778 236.175 300.05 236.098 300.329 236.087C300.607 236.076 300.885 236.13 301.14 236.246L310.592 241.788C311.002 242.023 310.949 242.451 310.476 242.728L305.404 245.708C305.16 245.846 304.887 245.924 304.608 245.935C304.329 245.947 304.051 245.89 303.797 245.772Z" fill="#0B1113"/>
<path d="M224.891 208.501L219.776 205.522C219.366 205.276 219.419 204.86 219.891 204.582L224.964 201.602C225.208 201.465 225.48 201.387 225.759 201.374C226.038 201.361 226.315 201.414 226.571 201.528L231.696 204.539C232.106 204.785 232.053 205.201 231.581 205.479L226.508 208.459C226.261 208.595 225.986 208.671 225.704 208.678C225.423 208.686 225.144 208.625 224.891 208.501Z" fill="#0B1113"/>
<path d="M216.782 203.749L211.668 200.737C211.248 200.503 211.3 200.075 211.783 199.798L216.856 196.818C217.098 196.68 217.369 196.602 217.647 196.591C217.924 196.579 218.2 196.635 218.452 196.754L223.578 199.755C223.987 200.001 223.935 200.428 223.462 200.705L218.389 203.685C218.145 203.821 217.872 203.898 217.593 203.909C217.315 203.92 217.037 203.865 216.782 203.749Z" fill="#0B1113"/>
<path d="M208.674 198.986L203.56 195.985C203.15 195.74 203.203 195.323 203.675 195.045L208.748 192.066C208.992 191.929 209.264 191.851 209.543 191.838C209.822 191.825 210.099 191.877 210.355 191.991L215.47 195.003C215.879 195.238 215.837 195.665 215.354 195.942L210.323 198.922C210.074 199.068 209.794 199.15 209.507 199.161C209.219 199.172 208.934 199.112 208.674 198.986Z" fill="#0B1113"/>
<path d="M200.577 194.234L195.452 191.222C195.042 190.987 195.095 190.56 195.567 190.282L200.64 187.303C200.884 187.164 201.157 187.086 201.436 187.075C201.715 187.064 201.993 187.12 202.247 187.239L207.372 190.24C207.782 190.485 207.729 190.902 207.257 191.18L202.173 194.159C201.931 194.296 201.661 194.374 201.384 194.387C201.107 194.4 200.831 194.347 200.577 194.234Z" fill="#0B1113"/>
<path d="M232.799 213.147L227.674 210.146C227.264 209.9 227.317 209.484 227.789 209.206L232.862 206.227C233.105 206.087 233.378 206.008 233.657 205.995C233.936 205.982 234.214 206.036 234.469 206.152L239.594 209.163C240.004 209.398 239.951 209.825 239.479 210.103L234.406 213.083C234.162 213.221 233.889 213.299 233.61 213.31C233.331 213.321 233.053 213.265 232.799 213.147Z" fill="#0B1113"/>
<path d="M240.707 217.792L235.582 214.781C235.173 214.546 235.225 214.119 235.698 213.841L240.781 210.861C241.025 210.723 241.298 210.645 241.577 210.634C241.856 210.623 242.134 210.679 242.388 210.797L247.513 213.809C247.923 214.044 247.87 214.471 247.398 214.749L242.325 217.728C242.08 217.868 241.805 217.947 241.524 217.959C241.243 217.97 240.963 217.913 240.707 217.792Z" fill="#0B1113"/>
<path d="M248.616 222.438L243.491 219.405C243.081 219.17 243.134 218.743 243.606 218.465L248.689 215.485C248.932 215.347 249.203 215.269 249.48 215.258C249.758 215.247 250.034 215.303 250.286 215.421L255.411 218.422C255.821 218.668 255.768 219.084 255.296 219.362L250.233 222.363C249.989 222.504 249.715 222.584 249.433 222.597C249.152 222.61 248.872 222.556 248.616 222.438Z" fill="#0B1113"/>
<path d="M256.535 227.083L251.41 224.072C251 223.826 251.053 223.409 251.525 223.132L256.608 220.152C256.851 220.014 257.122 219.936 257.399 219.925C257.677 219.914 257.953 219.97 258.205 220.088L263.33 223.089C263.74 223.335 263.687 223.751 263.215 224.029L258.142 227.008C257.898 227.145 257.626 227.223 257.347 227.236C257.068 227.249 256.79 227.197 256.535 227.083Z" fill="#0B1113"/>
<path d="M264.433 231.718L259.308 228.717C258.898 228.471 258.951 228.055 259.423 227.777L264.506 224.798C264.748 224.658 265.018 224.578 265.296 224.565C265.573 224.552 265.85 224.606 266.103 224.723L271.239 227.735C271.648 227.97 271.596 228.397 271.123 228.674L266.05 231.654C265.805 231.794 265.53 231.873 265.249 231.884C264.968 231.895 264.688 231.838 264.433 231.718Z" fill="#0B1113"/>
<path d="M272.341 236.363L267.216 233.352C266.807 233.117 266.859 232.69 267.332 232.412L272.415 229.433C272.657 229.294 272.928 229.216 273.206 229.205C273.483 229.194 273.759 229.25 274.011 229.368L279.137 232.38C279.546 232.615 279.494 233.042 279.021 233.32L273.948 236.299C273.704 236.438 273.432 236.516 273.152 236.527C272.873 236.538 272.595 236.482 272.341 236.363Z" fill="#0B1113"/>
<path d="M280.25 241.009L275.125 237.997C274.715 237.762 274.768 237.335 275.24 237.058L280.323 234.078C280.565 233.94 280.836 233.862 281.114 233.85C281.392 233.839 281.668 233.895 281.92 234.014L287.045 237.015C287.455 237.26 287.402 237.677 286.93 237.965L281.857 240.934C281.613 241.073 281.341 241.153 281.062 241.166C280.783 241.179 280.505 241.125 280.25 241.009Z" fill="#0B1113"/>
<path d="M288.158 245.654L283.044 242.643C282.623 242.397 282.676 241.981 283.149 241.703L288.232 238.723C288.474 238.585 288.745 238.507 289.022 238.496C289.3 238.485 289.576 238.541 289.828 238.659L294.954 241.66C295.363 241.906 295.311 242.322 294.838 242.6L289.765 245.58C289.521 245.717 289.249 245.795 288.97 245.808C288.692 245.821 288.414 245.768 288.158 245.654Z" fill="#0B1113"/>
<path d="M296.067 250.289L290.952 247.288C290.532 247.043 290.584 246.626 291.068 246.348L296.14 243.369C296.383 243.232 296.653 243.154 296.93 243.141C297.207 243.128 297.483 243.181 297.737 243.294L302.862 246.306C303.272 246.541 303.219 246.968 302.746 247.246L297.674 250.225C297.43 250.364 297.157 250.442 296.878 250.453C296.599 250.464 296.321 250.408 296.067 250.289Z" fill="#0B1113"/>
<path d="M220.721 196.978L215.575 194.02C215.165 193.775 215.218 193.347 215.69 193.07L220.763 190.09C221.008 189.954 221.28 189.878 221.559 189.866C221.838 189.855 222.115 189.91 222.37 190.026L227.485 193.038C227.894 193.273 227.852 193.7 227.369 193.978L222.328 196.978C222.079 197.107 221.804 197.174 221.524 197.174C221.245 197.174 220.97 197.107 220.721 196.978Z" fill="#0B1113"/>
<path d="M212.855 192.408L207.74 189.396C207.32 189.151 207.372 188.734 207.845 188.456L212.928 185.477C213.17 185.338 213.441 185.26 213.719 185.249C213.996 185.238 214.272 185.294 214.524 185.413L219.65 188.414C220.059 188.659 220.007 189.076 219.534 189.353L214.461 192.333C214.217 192.47 213.945 192.548 213.667 192.561C213.388 192.574 213.11 192.521 212.855 192.408Z" fill="#0B1113"/>
<path d="M204.988 187.784L199.821 184.772C199.411 184.537 199.464 184.11 199.936 183.832L205.072 180.853C205.316 180.714 205.589 180.636 205.868 180.625C206.147 180.614 206.425 180.67 206.679 180.789L211.804 183.79C212.214 184.035 212.161 184.462 211.689 184.74L206.616 187.719C206.369 187.862 206.093 187.942 205.81 187.953C205.526 187.964 205.245 187.906 204.988 187.784Z" fill="#0B1113"/>
<path d="M197.122 183.159L191.996 180.159C191.587 179.913 191.639 179.496 192.112 179.219L197.185 176.239C197.429 176.102 197.701 176.024 197.979 176.011C198.258 175.998 198.536 176.051 198.791 176.165L203.906 179.176C204.326 179.411 204.274 179.838 203.791 180.116L198.77 183.095C198.522 183.243 198.241 183.326 197.954 183.337C197.666 183.348 197.38 183.287 197.122 183.159Z" fill="#0B1113"/>
<path d="M205.209 178.407L200.083 175.406C199.674 175.161 199.726 174.744 200.199 174.467L201.921 173.484C202.165 173.345 202.437 173.265 202.716 173.252C202.995 173.239 203.273 173.293 203.528 173.409L208.643 176.421C209.063 176.656 209.011 177.083 208.538 177.361L206.858 178.343C206.608 178.489 206.328 178.571 206.041 178.582C205.754 178.593 205.468 178.533 205.209 178.407Z" fill="#0B1113"/>
<path d="M215.48 184.441L210.323 181.429C209.914 181.194 209.966 180.767 210.439 180.49L212.119 179.507C212.363 179.369 212.636 179.291 212.915 179.279C213.194 179.268 213.472 179.324 213.726 179.443L218.841 182.444C219.251 182.69 219.209 183.106 218.725 183.384L217.056 184.377C216.816 184.51 216.549 184.585 216.275 184.597C216.002 184.608 215.73 184.554 215.48 184.441Z" fill="#0B1113"/>
<path d="M223.315 189.044L218.19 186.032C217.78 185.797 217.833 185.37 218.305 185.092L219.986 184.11C220.23 183.971 220.502 183.893 220.782 183.882C221.061 183.871 221.339 183.927 221.593 184.046L226.707 187.047C227.128 187.292 227.075 187.709 226.602 187.986L224.922 188.969C224.679 189.108 224.406 189.188 224.127 189.201C223.848 189.214 223.57 189.16 223.315 189.044Z" fill="#0B1113"/>
<path d="M231.15 193.646L226.077 190.635C225.657 190.389 225.71 189.973 226.193 189.695L227.863 188.713C228.107 188.576 228.379 188.498 228.658 188.485C228.936 188.472 229.214 188.524 229.47 188.638L234.595 191.649C235.005 191.884 234.952 192.312 234.479 192.589L232.799 193.572C232.549 193.716 232.27 193.797 231.983 193.81C231.697 193.823 231.411 193.767 231.15 193.646Z" fill="#0B1113"/>
<path d="M238.985 198.239L233.87 195.238C233.461 194.992 233.503 194.576 233.986 194.298L235.656 193.305C235.901 193.169 236.173 193.093 236.452 193.082C236.73 193.071 237.008 193.125 237.263 193.241L242.388 196.252C242.798 196.487 242.745 196.914 242.272 197.192L240.592 198.174C240.348 198.313 240.075 198.391 239.796 198.402C239.517 198.413 239.239 198.357 238.985 198.239Z" fill="#0B1113"/>
<path d="M282.791 223.922L277.666 220.921C277.257 220.676 277.309 220.259 277.782 219.981L279.462 218.999C279.706 218.86 279.978 218.78 280.257 218.767C280.536 218.754 280.814 218.808 281.069 218.924L286.184 221.936C286.604 222.171 286.551 222.598 286.068 222.876L284.398 223.858C284.154 223.997 283.882 224.075 283.602 224.086C283.323 224.097 283.045 224.041 282.791 223.922Z" fill="#0B1113"/>
<path d="M290.574 228.525L285.459 225.524C285.039 225.278 285.092 224.862 285.575 224.584L287.245 223.591C287.489 223.452 287.761 223.374 288.041 223.363C288.32 223.352 288.598 223.408 288.851 223.527L293.977 226.538C294.386 226.773 294.334 227.201 293.861 227.478L292.181 228.461C291.937 228.599 291.664 228.677 291.385 228.688C291.106 228.7 290.828 228.644 290.574 228.525Z" fill="#0B1113"/>
<path d="M298.409 233.128L293.294 230.084C292.885 229.838 292.927 229.411 293.41 229.134L295.08 228.151C295.324 228.013 295.596 227.934 295.875 227.923C296.155 227.912 296.433 227.968 296.686 228.087L301.812 231.088C302.221 231.333 302.169 231.75 301.696 232.028L300.016 233.021C299.775 233.166 299.504 233.252 299.225 233.27C298.946 233.289 298.666 233.24 298.409 233.128Z" fill="#0B1113"/>
<path d="M306.254 237.73L301.129 234.719C300.719 234.484 300.772 234.057 301.245 233.779L302.925 232.797C303.167 232.658 303.438 232.58 303.716 232.569C303.993 232.558 304.269 232.614 304.521 232.732L309.647 235.733C310.056 235.979 310.004 236.395 309.531 236.673L307.851 237.666C307.608 237.802 307.337 237.879 307.06 237.89C306.783 237.901 306.507 237.846 306.254 237.73Z" fill="#0B1113"/>
<path d="M228.629 201.667L223.515 198.655C223.105 198.42 223.158 197.993 223.63 197.715L228.703 194.736C228.947 194.597 229.22 194.519 229.499 194.508C229.778 194.497 230.056 194.553 230.31 194.672L235.425 197.673C235.834 197.918 235.792 198.335 235.309 198.623L230.278 201.602C230.028 201.746 229.748 201.826 229.462 201.837C229.175 201.848 228.89 201.79 228.629 201.667Z" fill="#0B1113"/>
<path d="M236.58 206.312L231.465 203.3C231.056 203.055 231.108 202.638 231.581 202.361L236.653 199.381C236.897 199.243 237.17 199.165 237.449 199.154C237.729 199.142 238.006 199.198 238.26 199.317L243.375 202.318C243.785 202.564 243.743 202.98 243.26 203.258L238.187 206.237C237.943 206.374 237.671 206.452 237.392 206.465C237.113 206.478 236.835 206.426 236.58 206.312Z" fill="#0B1113"/>
<path d="M244.446 210.947L239.332 207.946C238.922 207.7 238.975 207.284 239.447 207.006L244.52 204.027C244.764 203.89 245.036 203.812 245.315 203.799C245.593 203.786 245.871 203.838 246.127 203.952L251.242 206.963C251.662 207.209 251.609 207.626 251.126 207.903L246.032 210.861C245.793 211 245.525 211.08 245.249 211.095C244.974 211.109 244.699 211.059 244.446 210.947Z" fill="#0B1113"/>
<path d="M252.334 215.592L247.209 212.591C246.799 212.346 246.852 211.929 247.324 211.641L252.397 208.661C252.642 208.525 252.914 208.449 253.193 208.438C253.472 208.426 253.749 208.481 254.004 208.597L259.119 211.609C259.539 211.844 259.486 212.271 259.003 212.549L253.93 215.528C253.688 215.667 253.417 215.745 253.14 215.756C252.862 215.767 252.586 215.711 252.334 215.592Z" fill="#0B1113"/>
<path d="M260.274 220.238L255.149 217.269C254.739 217.034 254.792 216.607 255.264 216.329L260.337 213.35C260.581 213.211 260.854 213.133 261.133 213.122C261.412 213.111 261.69 213.167 261.944 213.286L267.038 216.201C267.458 216.447 267.405 216.874 266.922 217.151L261.849 220.131C261.613 220.273 261.348 220.356 261.074 220.375C260.8 220.393 260.526 220.346 260.274 220.238Z" fill="#0B1113"/>
<path d="M268.182 224.883L263.057 221.872C262.647 221.637 262.7 221.21 263.173 220.932L268.245 217.952C268.489 217.814 268.762 217.736 269.041 217.725C269.32 217.714 269.598 217.77 269.852 217.888L274.967 220.889C275.387 221.135 275.335 221.551 274.852 221.829L269.779 224.808C269.536 224.945 269.266 225.023 268.989 225.036C268.712 225.049 268.436 224.997 268.182 224.883Z" fill="#0B1113"/>
<path d="M276.091 229.518L270.966 226.517C270.556 226.272 270.608 225.855 271.081 225.577L276.154 222.598C276.398 222.461 276.67 222.383 276.949 222.37C277.227 222.357 277.505 222.409 277.761 222.523L282.875 225.535C283.296 225.78 283.243 226.197 282.76 226.474L277.687 229.454C277.445 229.592 277.174 229.67 276.897 229.682C276.619 229.693 276.343 229.637 276.091 229.518Z" fill="#0B1113"/>
<path d="M283.999 234.163L278.874 231.152C278.464 230.906 278.517 230.49 278.99 230.201L284.062 227.233C284.306 227.093 284.578 227.014 284.857 227.001C285.136 226.988 285.414 227.042 285.669 227.158L290.784 230.169C291.204 230.404 291.152 230.832 290.679 231.109L285.596 234.089C285.354 234.229 285.084 234.309 284.806 234.322C284.529 234.335 284.252 234.28 283.999 234.163Z" fill="#0B1113"/>
<path d="M291.908 238.809L286.782 235.797C286.373 235.562 286.425 235.135 286.898 234.858L291.971 231.878C292.215 231.74 292.487 231.662 292.767 231.65C293.046 231.639 293.324 231.695 293.578 231.814L298.703 234.815C299.113 235.061 299.06 235.488 298.587 235.765L293.504 238.745C293.262 238.883 292.991 238.961 292.714 238.972C292.436 238.984 292.16 238.928 291.908 238.809Z" fill="#0B1113"/>
<path d="M183.416 202.243L168.313 193.379C167.903 193.145 167.956 192.717 168.428 192.44L173.564 189.503C173.808 189.364 174.081 189.286 174.36 189.275C174.639 189.264 174.917 189.32 175.171 189.439L190.253 198.292C190.662 198.538 190.61 198.954 190.137 199.232L185.065 202.211C184.812 202.348 184.53 202.423 184.244 202.428C183.957 202.434 183.674 202.371 183.416 202.243Z" fill="#0B1113"/>
<path d="M280.575 259.281L265.494 250.428C265.084 250.182 265.137 249.755 265.609 249.477L270.682 246.498C270.926 246.359 271.199 246.281 271.478 246.27C271.757 246.259 272.035 246.315 272.289 246.434L287.371 255.287C287.78 255.533 287.728 255.949 287.255 256.227L282.182 259.206C281.938 259.343 281.666 259.421 281.387 259.434C281.109 259.447 280.831 259.395 280.575 259.281Z" fill="#0B1113"/>
<path d="M248.952 250.962L243.827 247.961C243.417 247.715 243.47 247.299 243.942 247.021L249.992 243.465C250.236 243.327 250.508 243.248 250.788 243.237C251.067 243.226 251.345 243.282 251.599 243.401L256.713 246.413C257.123 246.647 257.071 247.075 256.598 247.352L250.559 250.898C250.315 251.036 250.042 251.114 249.763 251.125C249.484 251.137 249.206 251.081 248.952 250.962Z" fill="#0B1113"/>
<path d="M191.513 217.269L183.332 212.463C182.912 212.218 182.964 211.801 183.447 211.523L189.486 207.967C189.73 207.829 190.003 207.751 190.282 207.74C190.561 207.728 190.839 207.785 191.093 207.903L199.285 212.709C199.695 212.955 199.642 213.371 199.17 213.649L193.12 217.205C192.876 217.343 192.603 217.421 192.324 217.433C192.045 217.444 191.767 217.388 191.513 217.269Z" fill="#0B1113"/>
<path d="M241.327 246.487L233.146 241.682C232.725 241.447 232.778 241.02 233.261 240.742L239.3 237.196C239.544 237.059 239.816 236.981 240.095 236.968C240.374 236.955 240.652 237.008 240.907 237.122L249.099 241.938C249.509 242.173 249.456 242.6 248.984 242.878L242.934 246.423C242.69 246.562 242.417 246.64 242.138 246.651C241.859 246.662 241.581 246.606 241.327 246.487Z" fill="#0B1113"/>
<path d="M202.972 223.943L194.78 219.138C194.37 218.903 194.422 218.476 194.895 218.198L200.945 214.653C201.187 214.516 201.457 214.438 201.734 214.425C202.011 214.412 202.287 214.464 202.541 214.578L210.733 219.394C211.143 219.629 211.09 220.056 210.617 220.334L204.578 223.879C204.334 224.018 204.062 224.096 203.783 224.107C203.503 224.118 203.225 224.062 202.972 223.943Z" fill="#0B1113"/>
<path d="M202.562 214.61L238.166 235.52C238.265 235.55 238.352 235.613 238.413 235.697C238.475 235.782 238.508 235.884 238.508 235.99C238.508 236.095 238.475 236.197 238.413 236.282C238.352 236.367 238.265 236.429 238.166 236.459L232.001 240.08C231.753 240.206 231.48 240.273 231.203 240.273C230.925 240.273 230.652 240.206 230.404 240.08L194.79 219.17L202.562 214.61Z" fill="#0B1113"/>
<path d="M271.06 259.388L276.763 262.73C277.099 262.933 277.057 263.275 276.668 263.499L274.19 264.952C273.991 265.066 273.769 265.131 273.541 265.142C273.313 265.154 273.086 265.11 272.877 265.016L267.174 261.662C266.838 261.47 266.88 261.118 267.269 260.894L269.737 259.441C269.937 259.325 270.162 259.26 270.392 259.25C270.622 259.241 270.851 259.288 271.06 259.388Z" fill="#0B1113"/>
<path d="M263.078 254.7L268.781 258.053C269.117 258.245 269.075 258.598 268.686 258.822L266.218 260.274C266.019 260.388 265.796 260.452 265.568 260.461C265.34 260.47 265.113 260.424 264.906 260.328L259.203 256.985C258.867 256.782 258.909 256.44 259.297 256.205L261.786 254.753C261.984 254.646 262.203 254.586 262.426 254.577C262.65 254.567 262.873 254.609 263.078 254.7Z" fill="#0B1113"/>
<path d="M255.17 250.054L260.873 253.407C261.209 253.61 261.167 253.952 260.778 254.176L258.31 255.629C258.112 255.745 257.889 255.81 257.66 255.819C257.431 255.829 257.204 255.782 256.997 255.682L251.284 252.339C250.937 252.137 250.99 251.795 251.378 251.571L253.846 250.118C254.046 250.002 254.27 249.936 254.5 249.925C254.73 249.914 254.96 249.958 255.17 250.054Z" fill="#0B1113"/>
<path d="M267.447 252.137L273.15 255.49C273.486 255.682 273.444 256.035 273.056 256.259L270.587 257.711C270.388 257.825 270.165 257.889 269.937 257.898C269.709 257.907 269.482 257.861 269.275 257.765L263.561 254.422C263.225 254.219 263.267 253.877 263.656 253.642L266.134 252.19C266.335 252.08 266.557 252.018 266.785 252.008C267.012 251.999 267.239 252.043 267.447 252.137Z" fill="#0B1113"/>
</g>
<path d="M351.153 242.75L200.052 154.048C198.852 153.25 197.936 152.082 197.439 150.715C196.942 149.348 196.889 147.854 197.29 146.455L231.455 33.6502C232.305 30.8523 234.91 29.7096 237.294 31.1086L388.385 119.81C389.586 120.607 390.503 121.775 391 123.143C391.498 124.51 391.549 126.004 391.147 127.403L356.982 240.208C356.142 243.006 353.527 244.138 351.153 242.75Z" fill="url(#paint7_radial_100_48)"/>
<path d="M349.725 238.798L203.171 152.692C202.025 151.927 201.15 150.81 200.674 149.503C200.197 148.196 200.145 146.769 200.524 145.43L233.188 37.5695C233.312 36.9777 233.575 36.425 233.954 35.958C234.333 35.4909 234.816 35.1231 235.364 34.8856C235.911 34.648 236.507 34.5476 237.1 34.5928C237.694 34.638 238.268 34.8275 238.775 35.1453L385.329 121.263C386.476 122.026 387.352 123.143 387.828 124.45C388.305 125.757 388.356 127.185 387.975 128.525L355.312 236.385C354.493 239.044 351.993 240.133 349.725 238.798Z" fill="url(#paint8_linear_100_48)"/>
<path opacity="0.4" d="M349.725 238.798L203.171 152.692C202.025 151.927 201.15 150.81 200.674 149.503C200.197 148.196 200.145 146.769 200.524 145.43L233.188 37.5695C233.312 36.9777 233.575 36.425 233.954 35.958C234.333 35.4909 234.816 35.1231 235.364 34.8856C235.911 34.648 236.507 34.5476 237.1 34.5928C237.694 34.638 238.268 34.8275 238.775 35.1453L385.329 121.263C386.476 122.026 387.352 123.143 387.828 124.45C388.305 125.757 388.356 127.185 387.975 128.525L355.312 236.385C354.493 239.044 351.993 240.133 349.725 238.798Z" fill="#271515"/>
<path opacity="0.4" d="M349.725 238.798L203.171 152.692C202.025 151.927 201.15 150.81 200.674 149.503C200.197 148.196 200.145 146.769 200.524 145.43L233.188 37.5695C233.312 36.9777 233.575 36.425 233.954 35.958C234.333 35.4909 234.816 35.1231 235.364 34.8856C235.911 34.648 236.507 34.5476 237.1 34.5928C237.694 34.638 238.268 34.8275 238.775 35.1453L385.329 121.263C386.476 122.026 387.352 123.143 387.828 124.45C388.305 125.757 388.356 127.185 387.975 128.525L355.312 236.385C354.493 239.044 351.993 240.133 349.725 238.798Z" fill="#CC9886"/>
<path opacity="0.5" d="M341.848 205.842L242.64 147.598C241.852 147.073 241.251 146.306 240.924 145.408C240.597 144.511 240.561 143.53 240.823 142.61L263.257 68.55C263.343 68.1443 263.523 67.7654 263.783 67.4449C264.043 67.1245 264.374 66.8717 264.749 66.7077C265.124 66.5437 265.532 66.4731 265.939 66.5019C266.346 66.5307 266.741 66.6581 267.09 66.8733L366.298 125.118C367.087 125.641 367.689 126.408 368.017 127.306C368.344 128.204 368.378 129.186 368.115 130.105L345.681 204.176C345.596 204.582 345.415 204.962 345.156 205.282C344.896 205.603 344.564 205.855 344.189 206.019C343.813 206.182 343.405 206.251 342.997 206.22C342.59 206.19 342.196 206.06 341.848 205.842Z" fill="#0B1113"/>
<g opacity="0.5">
<path d="M328.446 207.658L229.228 149.381C228.44 148.86 227.838 148.094 227.511 147.198C227.183 146.302 227.149 145.322 227.411 144.405L249.845 70.3334C249.928 69.9259 250.107 69.545 250.367 69.2229C250.626 68.9009 250.958 68.6473 251.334 68.4838C251.711 68.3202 252.12 68.2515 252.528 68.2834C252.936 68.3154 253.331 68.4472 253.678 68.6674L352.886 126.901C353.674 127.426 354.275 128.193 354.602 129.091C354.929 129.988 354.965 130.969 354.703 131.888L332.269 205.96C332.189 206.368 332.014 206.751 331.757 207.076C331.5 207.4 331.169 207.657 330.794 207.824C330.418 207.99 330.009 208.062 329.6 208.034C329.191 208.005 328.796 207.876 328.446 207.658Z" fill="#F2B886"/>
</g>
<path d="M352.897 126.901L253.689 68.6675C253.268 68.3958 252.776 68.2597 252.277 68.2769C251.779 68.294 251.297 68.4636 250.895 68.7636C251.396 68.7503 251.891 68.8798 252.323 69.1373L351.531 127.371C352.319 127.895 352.922 128.662 353.251 129.559C353.58 130.457 353.618 131.438 353.359 132.358L330.915 206.43C330.74 207.054 330.372 207.605 329.864 207.999C330.427 207.965 330.964 207.749 331.397 207.382C331.83 207.015 332.136 206.516 332.269 205.96L354.703 131.888C354.966 130.97 354.932 129.99 354.607 129.093C354.282 128.195 353.682 127.427 352.897 126.901Z" fill="white"/>
<path opacity="0.4" d="M203.318 268.113C202.039 268.145 200.774 267.843 199.642 267.237L159.911 243.903C159.443 243.676 159.045 243.325 158.756 242.887C158.468 242.449 158.301 241.941 158.272 241.415C158.34 240.75 158.578 240.115 158.964 239.573C159.349 239.031 159.868 238.602 160.467 238.328L180.916 226.314C182.188 225.58 183.615 225.167 185.077 225.109C186.539 225.051 187.994 225.351 189.318 225.983L229.018 249.307C229.487 249.532 229.887 249.882 230.175 250.32C230.464 250.759 230.63 251.268 230.656 251.795C230.589 252.46 230.35 253.095 229.965 253.637C229.58 254.178 229.061 254.608 228.461 254.881L208.002 266.895C206.57 267.704 204.956 268.123 203.318 268.113ZM185.621 226.293C184.179 226.291 182.76 226.659 181.494 227.361L161.035 239.375C159.984 239.984 159.417 240.742 159.417 241.457C159.449 241.775 159.563 242.079 159.748 242.338C159.932 242.596 160.18 242.801 160.467 242.931L200.209 266.265C201.354 266.776 202.599 267.013 203.848 266.957C205.097 266.901 206.317 266.555 207.414 265.945L227.884 253.931C228.934 253.322 229.501 252.564 229.501 251.795C229.467 251.478 229.352 251.175 229.168 250.916C228.984 250.658 228.737 250.453 228.451 250.321L188.698 226.987C187.748 226.491 186.689 226.252 185.621 226.293Z" fill="#0B1113"/>
<path d="M277.855 107.529L271.722 103.92C271.432 103.736 271.209 103.462 271.086 103.138C270.963 102.815 270.946 102.459 271.039 102.125C271.07 101.98 271.135 101.844 271.229 101.73C271.323 101.616 271.442 101.526 271.578 101.469C271.713 101.413 271.86 101.39 272.006 101.404C272.152 101.418 272.292 101.468 272.415 101.549L278.59 105.137C278.876 105.324 279.096 105.599 279.219 105.921C279.342 106.243 279.361 106.597 279.273 106.931C279.246 107.084 279.181 107.227 279.085 107.348C278.989 107.469 278.865 107.563 278.724 107.623C278.583 107.682 278.43 107.705 278.278 107.688C278.126 107.672 277.981 107.617 277.855 107.529Z" fill="white"/>
<path d="M292.464 116.105L283.422 110.765C283.133 110.58 282.911 110.306 282.788 109.983C282.665 109.66 282.648 109.305 282.739 108.971C282.768 108.824 282.832 108.687 282.926 108.572C283.019 108.456 283.139 108.366 283.274 108.308C283.41 108.25 283.557 108.226 283.704 108.24C283.85 108.253 283.991 108.302 284.115 108.383L293.158 113.723C293.443 113.91 293.663 114.185 293.786 114.507C293.909 114.83 293.928 115.183 293.84 115.517C293.811 115.664 293.747 115.801 293.653 115.916C293.56 116.032 293.441 116.123 293.305 116.18C293.169 116.238 293.022 116.262 292.875 116.248C292.729 116.235 292.588 116.186 292.464 116.105Z" fill="white"/>
<path d="M265.483 135.295L259.35 131.686C259.064 131.498 258.844 131.224 258.721 130.901C258.598 130.579 258.579 130.225 258.667 129.891C258.698 129.746 258.763 129.61 258.857 129.496C258.951 129.381 259.07 129.292 259.206 129.235C259.341 129.179 259.488 129.156 259.634 129.17C259.78 129.184 259.92 129.234 260.043 129.315L266.176 132.914C266.462 133.101 266.682 133.375 266.805 133.698C266.928 134.02 266.946 134.374 266.859 134.708C266.827 134.853 266.762 134.988 266.668 135.102C266.575 135.216 266.455 135.306 266.321 135.364C266.186 135.421 266.039 135.445 265.894 135.433C265.748 135.421 265.607 135.374 265.483 135.295Z" fill="white"/>
<path d="M278.506 142.931L269.464 137.591C269.175 137.406 268.953 137.132 268.83 136.809C268.707 136.486 268.69 136.131 268.781 135.797C268.812 135.651 268.877 135.516 268.971 135.401C269.065 135.287 269.184 135.198 269.32 135.141C269.455 135.084 269.602 135.062 269.748 135.076C269.894 135.089 270.034 135.139 270.157 135.22L279.2 140.56C279.485 140.747 279.705 141.022 279.828 141.344C279.951 141.666 279.97 142.02 279.882 142.354C279.852 142.5 279.786 142.635 279.693 142.75C279.599 142.864 279.479 142.953 279.343 143.01C279.208 143.067 279.061 143.089 278.915 143.076C278.769 143.062 278.629 143.012 278.506 142.931Z" fill="white"/>
<path d="M259.476 102.574L255.642 100.331C255.358 100.143 255.139 99.8684 255.016 99.5464C254.893 99.2244 254.874 98.8713 254.96 98.5373C254.991 98.3905 255.056 98.2536 255.15 98.1381C255.245 98.0227 255.365 97.9323 255.501 97.8746C255.638 97.8168 255.786 97.7935 255.933 97.8067C256.08 97.8198 256.222 97.8689 256.346 97.9499L260.179 100.203C260.466 100.39 260.686 100.664 260.807 100.987C260.928 101.311 260.943 101.665 260.851 101.997C260.821 102.143 260.756 102.279 260.662 102.393C260.568 102.507 260.448 102.597 260.313 102.653C260.177 102.71 260.03 102.733 259.885 102.719C259.739 102.705 259.598 102.655 259.476 102.574Z" fill="white"/>
<path d="M271.008 115.186L259.297 108.341C259.011 108.154 258.791 107.879 258.669 107.557C258.546 107.234 258.527 106.881 258.614 106.547C258.647 106.401 258.713 106.265 258.808 106.151C258.903 106.037 259.024 105.948 259.16 105.891C259.296 105.834 259.443 105.812 259.59 105.826C259.736 105.84 259.877 105.889 260.001 105.97L271.701 112.837C271.988 113.023 272.209 113.297 272.332 113.62C272.454 113.943 272.473 114.297 272.383 114.631C272.348 114.773 272.28 114.905 272.184 115.015C272.089 115.126 271.969 115.211 271.835 115.266C271.701 115.32 271.556 115.341 271.412 115.327C271.268 115.313 271.129 115.265 271.008 115.186Z" fill="white"/>
<path d="M260.211 120.515L256.377 118.272C256.093 118.084 255.874 117.809 255.751 117.487C255.629 117.165 255.609 116.812 255.695 116.478C255.724 116.332 255.788 116.195 255.882 116.079C255.975 115.964 256.094 115.873 256.23 115.815C256.366 115.757 256.513 115.734 256.66 115.747C256.806 115.76 256.947 115.81 257.071 115.891L260.904 118.144C261.19 118.331 261.41 118.606 261.533 118.928C261.655 119.251 261.674 119.604 261.587 119.938C261.556 120.084 261.491 120.22 261.397 120.334C261.303 120.448 261.183 120.538 261.048 120.595C260.912 120.651 260.766 120.674 260.62 120.66C260.474 120.646 260.334 120.596 260.211 120.515Z" fill="white"/>
<path d="M279.914 155.436L269.684 149.434C269.398 149.247 269.178 148.973 269.056 148.65C268.933 148.328 268.914 147.974 269.002 147.64C269.031 147.494 269.095 147.357 269.188 147.241C269.282 147.126 269.401 147.035 269.537 146.977C269.673 146.919 269.82 146.896 269.966 146.909C270.113 146.922 270.254 146.972 270.377 147.053L280.617 153.065C280.903 153.253 281.123 153.527 281.246 153.849C281.369 154.172 281.388 154.525 281.3 154.859C281.268 155.005 281.201 155.141 281.106 155.255C281.011 155.369 280.891 155.459 280.755 155.515C280.619 155.572 280.471 155.594 280.325 155.58C280.178 155.567 280.037 155.517 279.914 155.436Z" fill="white"/>
<path d="M255.915 129.699L253.458 128.247C253.173 128.061 252.953 127.789 252.83 127.468C252.708 127.148 252.688 126.796 252.775 126.463C252.804 126.317 252.868 126.18 252.962 126.064C253.055 125.949 253.175 125.858 253.31 125.8C253.446 125.742 253.593 125.719 253.74 125.732C253.886 125.745 254.027 125.795 254.151 125.876L256.608 127.318C256.898 127.501 257.121 127.775 257.244 128.099C257.367 128.423 257.384 128.778 257.291 129.112C257.259 129.257 257.194 129.392 257.1 129.506C257.007 129.621 256.887 129.71 256.753 129.768C256.618 129.825 256.471 129.849 256.326 129.837C256.18 129.825 256.039 129.778 255.915 129.699Z" fill="white"/>
<path d="M253.584 139.983L250.538 138.189C250.248 138.006 250.025 137.732 249.902 137.408C249.779 137.084 249.763 136.729 249.855 136.395C249.886 136.25 249.951 136.114 250.045 135.999C250.139 135.885 250.259 135.796 250.394 135.739C250.529 135.682 250.676 135.66 250.822 135.674C250.968 135.688 251.108 135.737 251.231 135.818L254.287 137.602C254.572 137.79 254.791 138.065 254.914 138.387C255.036 138.709 255.056 139.062 254.97 139.396C254.939 139.543 254.874 139.68 254.779 139.795C254.685 139.911 254.564 140.001 254.428 140.059C254.292 140.116 254.144 140.14 253.997 140.127C253.85 140.113 253.708 140.064 253.584 139.983Z" fill="white"/>
<path d="M265.473 146.957L257.417 142.237C257.133 142.048 256.913 141.774 256.791 141.452C256.668 141.13 256.649 140.777 256.734 140.443C256.764 140.296 256.828 140.159 256.921 140.043C257.015 139.928 257.134 139.837 257.27 139.779C257.405 139.721 257.553 139.698 257.699 139.711C257.846 139.725 257.987 139.774 258.11 139.855L266.166 144.586C266.452 144.773 266.672 145.048 266.794 145.37C266.917 145.693 266.936 146.046 266.849 146.38C266.818 146.526 266.753 146.662 266.659 146.776C266.565 146.89 266.445 146.98 266.31 147.036C266.174 147.093 266.027 147.115 265.882 147.102C265.736 147.088 265.595 147.038 265.473 146.957Z" fill="white"/>
<path d="M254.865 146.572L249.068 143.166C248.782 142.981 248.563 142.708 248.441 142.387C248.32 142.066 248.304 141.714 248.395 141.382C248.425 141.236 248.489 141.099 248.582 140.983C248.676 140.868 248.795 140.777 248.931 140.719C249.066 140.661 249.214 140.638 249.36 140.651C249.507 140.664 249.648 140.714 249.771 140.795L255.558 144.191C255.844 144.378 256.064 144.653 256.187 144.975C256.309 145.297 256.328 145.651 256.241 145.985C256.211 146.132 256.147 146.269 256.054 146.384C255.961 146.5 255.841 146.59 255.705 146.648C255.57 146.706 255.422 146.729 255.276 146.716C255.13 146.703 254.988 146.654 254.865 146.572Z" fill="white"/>
<path d="M288.694 160.669L284.976 158.533C284.69 158.346 284.47 158.071 284.348 157.749C284.225 157.427 284.206 157.073 284.293 156.739C284.326 156.594 284.393 156.458 284.488 156.344C284.583 156.23 284.703 156.141 284.838 156.084C284.974 156.026 285.121 156.002 285.267 156.014C285.413 156.026 285.555 156.073 285.68 156.152L289.398 158.288C289.683 158.475 289.904 158.749 290.026 159.072C290.149 159.394 290.168 159.748 290.08 160.082C290.049 160.228 289.984 160.365 289.889 160.481C289.795 160.596 289.675 160.687 289.538 160.744C289.402 160.802 289.254 160.825 289.107 160.812C288.96 160.799 288.818 160.75 288.694 160.669Z" fill="white"/>
<path d="M274.463 128.888L264.233 122.875C263.944 122.692 263.721 122.417 263.598 122.094C263.475 121.77 263.458 121.415 263.551 121.081C263.581 120.936 263.647 120.8 263.74 120.685C263.834 120.571 263.954 120.482 264.09 120.425C264.225 120.368 264.372 120.346 264.518 120.36C264.663 120.373 264.804 120.423 264.927 120.504L275.156 126.506C275.443 126.692 275.664 126.967 275.787 127.289C275.91 127.612 275.928 127.966 275.839 128.3C275.809 128.447 275.745 128.584 275.652 128.699C275.559 128.815 275.439 128.906 275.303 128.963C275.168 129.021 275.02 129.045 274.874 129.031C274.727 129.018 274.586 128.969 274.463 128.888Z" fill="white"/>
<path d="M275.671 123.762L257.816 113.285C257.531 113.1 257.312 112.827 257.189 112.507C257.066 112.186 257.047 111.834 257.134 111.502C257.165 111.355 257.23 111.218 257.324 111.103C257.419 110.987 257.539 110.897 257.676 110.839C257.812 110.781 257.96 110.758 258.107 110.771C258.254 110.784 258.396 110.833 258.52 110.914L276.374 121.38C276.659 121.568 276.878 121.843 277.001 122.165C277.123 122.487 277.143 122.84 277.057 123.174C277.026 123.321 276.961 123.458 276.866 123.573C276.772 123.689 276.651 123.779 276.515 123.837C276.379 123.895 276.231 123.918 276.084 123.905C275.937 123.892 275.795 123.843 275.671 123.762Z" fill="#FA6A00"/>
<path d="M265.147 129.261L254.918 123.292C254.632 123.105 254.412 122.83 254.289 122.508C254.166 122.185 254.147 121.832 254.235 121.498C254.266 121.352 254.331 121.216 254.425 121.102C254.519 120.988 254.638 120.898 254.774 120.841C254.909 120.785 255.056 120.762 255.202 120.776C255.348 120.79 255.488 120.84 255.611 120.921L265.851 126.923C266.137 127.11 266.357 127.384 266.479 127.707C266.602 128.029 266.621 128.383 266.533 128.717C266.495 128.858 266.425 128.989 266.328 129.098C266.231 129.207 266.11 129.291 265.975 129.344C265.841 129.397 265.695 129.417 265.552 129.403C265.408 129.389 265.269 129.34 265.147 129.261Z" fill="#FA6A00"/>
<path d="M282.224 133.448L278.506 131.312C278.221 131.125 278.001 130.85 277.878 130.528C277.755 130.205 277.736 129.852 277.824 129.518C277.855 129.372 277.92 129.236 278.014 129.122C278.107 129.008 278.227 128.918 278.363 128.862C278.498 128.805 278.645 128.782 278.791 128.796C278.937 128.81 279.077 128.86 279.2 128.941L282.918 131.077C283.207 131.26 283.43 131.535 283.553 131.858C283.676 132.182 283.693 132.537 283.6 132.871C283.567 133.015 283.501 133.149 283.407 133.262C283.312 133.375 283.193 133.463 283.058 133.52C282.924 133.576 282.778 133.599 282.633 133.587C282.488 133.574 282.348 133.526 282.224 133.448Z" fill="#FA6A00"/>
<path d="M320.044 132.294L297.989 119.372C297.701 119.188 297.478 118.913 297.356 118.59C297.233 118.267 297.215 117.912 297.306 117.578C297.336 117.432 297.4 117.295 297.493 117.179C297.586 117.064 297.706 116.973 297.841 116.915C297.977 116.857 298.124 116.834 298.271 116.847C298.417 116.86 298.559 116.91 298.682 116.991L320.737 129.913C321.026 130.098 321.248 130.372 321.371 130.695C321.494 131.018 321.511 131.373 321.42 131.707C321.391 131.853 321.327 131.99 321.233 132.106C321.14 132.222 321.02 132.312 320.885 132.37C320.749 132.428 320.602 132.451 320.455 132.438C320.309 132.425 320.168 132.376 320.044 132.294Z" fill="#FA6A00"/>
<path d="M264.296 140.432L251.998 133.213C251.711 133.027 251.49 132.752 251.367 132.43C251.244 132.107 251.226 131.753 251.315 131.419C251.345 131.272 251.409 131.135 251.502 131.02C251.595 130.904 251.715 130.813 251.85 130.755C251.986 130.698 252.134 130.674 252.28 130.687C252.426 130.701 252.568 130.75 252.691 130.831L264.99 138.05C265.278 138.235 265.5 138.509 265.623 138.833C265.746 139.156 265.763 139.511 265.672 139.844C265.643 139.991 265.579 140.128 265.485 140.244C265.392 140.359 265.272 140.45 265.137 140.508C265.001 140.566 264.854 140.589 264.707 140.576C264.561 140.562 264.42 140.513 264.296 140.432Z" fill="#EA007E"/>
<path d="M266.155 100.652L257.102 95.3121C256.816 95.1258 256.596 94.8509 256.475 94.5279C256.354 94.2048 256.338 93.8508 256.43 93.518C256.461 93.3724 256.526 93.2366 256.62 93.1223C256.714 93.008 256.833 92.9187 256.969 92.8619C257.104 92.8052 257.251 92.7827 257.397 92.7966C257.543 92.8104 257.683 92.8601 257.806 92.9413L266.849 98.2809C267.134 98.4681 267.354 98.7426 267.477 99.065C267.6 99.3874 267.619 99.741 267.531 100.075C267.5 100.221 267.435 100.356 267.341 100.471C267.248 100.585 267.128 100.674 266.992 100.731C266.857 100.788 266.71 100.81 266.564 100.796C266.418 100.783 266.278 100.733 266.155 100.652Z" fill="#EA007E"/>
<path d="M252.975 151.293L242.472 145.152C242.187 144.964 241.968 144.689 241.846 144.367C241.723 144.045 241.703 143.692 241.789 143.358C241.82 143.211 241.886 143.074 241.98 142.959C242.074 142.843 242.195 142.753 242.331 142.695C242.467 142.638 242.615 142.614 242.762 142.627C242.91 142.64 243.051 142.69 243.176 142.771L253.678 148.922C253.964 149.109 254.184 149.384 254.307 149.706C254.429 150.028 254.448 150.382 254.361 150.716C254.331 150.863 254.266 151.001 254.171 151.116C254.076 151.232 253.955 151.322 253.819 151.379C253.682 151.436 253.533 151.458 253.386 151.443C253.239 151.428 253.097 151.376 252.975 151.293Z" fill="#FA6A00"/>
<path d="M322.512 120.782L318.038 118.144C317.828 118.011 317.665 117.812 317.574 117.578C317.484 117.343 317.47 117.085 317.534 116.841C317.553 116.727 317.6 116.62 317.671 116.53C317.743 116.44 317.836 116.37 317.941 116.327C318.047 116.284 318.161 116.27 318.274 116.285C318.387 116.3 318.494 116.345 318.584 116.414L323.069 119.041C323.277 119.179 323.437 119.381 323.526 119.617C323.614 119.853 323.627 120.111 323.563 120.355C323.544 120.469 323.497 120.576 323.425 120.666C323.354 120.756 323.261 120.826 323.156 120.869C323.05 120.912 322.936 120.926 322.823 120.911C322.71 120.896 322.603 120.852 322.512 120.782Z" fill="white"/>
<path d="M331.104 125.801L326.619 123.174C326.409 123.038 326.247 122.837 326.156 122.601C326.066 122.365 326.051 122.106 326.115 121.861C326.134 121.747 326.181 121.639 326.252 121.549C326.323 121.459 326.416 121.39 326.522 121.347C326.627 121.304 326.742 121.289 326.855 121.304C326.967 121.32 327.074 121.364 327.165 121.434L331.65 124.061C331.86 124.197 332.022 124.398 332.112 124.634C332.203 124.87 332.217 125.129 332.154 125.374C332.135 125.488 332.088 125.595 332.017 125.685C331.945 125.775 331.852 125.845 331.747 125.888C331.641 125.931 331.527 125.946 331.414 125.93C331.301 125.915 331.194 125.871 331.104 125.801Z" fill="white"/>
<path d="M339.621 130.821L335.137 128.193C334.926 128.058 334.764 127.857 334.675 127.62C334.586 127.383 334.575 127.124 334.643 126.88C334.663 126.773 334.709 126.673 334.777 126.588C334.844 126.504 334.931 126.438 335.03 126.395C335.128 126.353 335.236 126.336 335.342 126.346C335.449 126.356 335.551 126.393 335.641 126.453L340.125 129.08C340.335 129.216 340.497 129.417 340.588 129.653C340.679 129.889 340.693 130.148 340.629 130.393C340.608 130.5 340.56 130.601 340.492 130.685C340.423 130.769 340.335 130.835 340.236 130.877C340.137 130.919 340.029 130.936 339.922 130.926C339.815 130.916 339.711 130.88 339.621 130.821Z" fill="white"/>
<path d="M343.822 133.287L343.686 133.213C343.478 133.075 343.318 132.873 343.229 132.637C343.14 132.402 343.127 132.143 343.192 131.899C343.211 131.785 343.258 131.678 343.329 131.588C343.401 131.498 343.493 131.428 343.599 131.385C343.705 131.342 343.819 131.328 343.932 131.343C344.045 131.358 344.151 131.403 344.242 131.472L344.379 131.557C344.585 131.695 344.743 131.894 344.832 132.128C344.921 132.362 344.935 132.618 344.872 132.86C344.854 132.974 344.807 133.081 344.735 133.172C344.664 133.262 344.571 133.331 344.466 133.374C344.36 133.417 344.245 133.432 344.133 133.417C344.02 133.401 343.913 133.357 343.822 133.287Z" fill="#EA007E"/>
<path d="M112.439 186.641C109.556 186.641 106.724 185.871 104.226 184.409L74.1988 166.778C73.5768 166.398 73.0619 165.861 72.7045 165.219C72.347 164.577 72.1592 163.852 72.1592 163.115C72.1592 162.377 72.347 161.652 72.7045 161.01C73.0619 160.368 73.5768 159.831 74.1988 159.452L104.247 141.831C106.743 140.367 109.573 139.596 112.455 139.596C115.336 139.596 118.167 140.367 120.662 141.831L150.689 159.462C151.325 159.83 151.853 160.362 152.221 161.004C152.588 161.647 152.782 162.377 152.782 163.12C152.782 163.863 152.588 164.593 152.221 165.236C151.853 165.878 151.325 166.41 150.689 166.778L120.662 184.409C118.162 185.875 115.325 186.645 112.439 186.641ZM105.203 182.69C107.403 183.975 109.896 184.651 112.434 184.651C114.971 184.651 117.464 183.975 119.665 182.69L149.692 165.058C150.028 164.863 150.307 164.581 150.502 164.241C150.696 163.9 150.798 163.513 150.798 163.12C150.798 162.726 150.696 162.34 150.502 161.999C150.307 161.659 150.028 161.377 149.692 161.182L119.665 143.582C117.465 142.294 114.972 141.615 112.434 141.615C109.895 141.615 107.402 142.294 105.203 143.582L75.1756 161.214C74.8394 161.409 74.56 161.691 74.3656 162.031C74.1713 162.372 74.0689 162.758 74.0689 163.152C74.0689 163.546 74.1713 163.932 74.3656 164.273C74.56 164.613 74.8394 164.895 75.1756 165.09L105.203 182.69Z" fill="url(#paint9_linear_100_48)"/>
<path opacity="0.6" d="M112.292 175.652C123.684 175.652 132.919 170.23 132.919 163.542C132.919 156.853 123.684 151.431 112.292 151.431C100.9 151.431 91.6647 156.853 91.6647 163.542C91.6647 170.23 100.9 175.652 112.292 175.652Z" fill="#271515"/>
<path d="M142.865 77.2215H84.0503L89.5432 141.906C89.5432 145.504 91.8748 149.093 96.5484 151.837C105.885 157.316 121.02 157.316 130.367 151.837C135.03 149.093 137.362 145.504 137.362 141.906L142.865 77.2215Z" fill="url(#paint10_radial_100_48)"/>
<path opacity="0.4" d="M142.865 77.2215H84.0503L84.9535 87.9007C86.4946 89.8477 88.3353 91.5283 90.4044 92.8772C101.632 100.449 120.148 101.912 132.793 96.4548L130.84 143.764C130.774 145.832 130.036 147.819 128.739 149.413C126.838 151.688 123.173 154.368 116.136 155.885C121.115 155.645 125.978 154.273 130.367 151.869C135.03 149.125 137.362 145.537 137.362 141.938L141.752 90.0686L142.865 77.2215Z" fill="#0B1113"/>
<path opacity="0.4" d="M113.489 94.4791C129.713 94.4791 142.865 86.7574 142.865 77.2322C142.865 67.707 129.713 59.9852 113.489 59.9852C97.2653 59.9852 84.1133 67.707 84.1133 77.2322C84.1133 86.7574 97.2653 94.4791 113.489 94.4791Z" fill="#0B1113"/>
<path opacity="0.4" d="M113.489 85.9998C127.462 85.9998 138.79 79.3491 138.79 71.145C138.79 62.9409 127.462 56.2902 113.489 56.2902C99.5159 56.2902 88.1883 62.9409 88.1883 71.145C88.1883 79.3491 99.5159 85.9998 113.489 85.9998Z" fill="#0B1113"/>
<path d="M144.598 76.4099C144.603 76.3781 144.603 76.3456 144.598 76.3138L144.041 70.5256V70.5897C143.789 66.2112 140.828 61.8648 135.125 58.5222C123.194 51.5166 103.858 51.5166 91.9273 58.5222C86.0878 61.9502 83.1156 66.4248 83.0001 70.9208L82.4644 76.0788C82.4644 76.207 82.4644 76.3458 82.4644 76.474V76.5594C82.1493 81.4718 85.1741 86.4484 91.5597 90.1968C103.732 97.3412 123.456 97.3412 135.671 90.1968C141.941 86.3736 144.966 81.3544 144.598 76.4099Z" fill="url(#paint11_linear_100_48)"/>
<path d="M113.489 85.9998C127.462 85.9998 138.79 79.3491 138.79 71.145C138.79 62.9409 127.462 56.2902 113.489 56.2902C99.5159 56.2902 88.1883 62.9409 88.1883 71.145C88.1883 79.3491 99.5159 85.9998 113.489 85.9998Z" fill="url(#paint12_linear_100_48)"/>
<path d="M112.292 85.9998C126.265 85.9998 137.593 79.3491 137.593 71.145C137.593 62.9409 126.265 56.2902 112.292 56.2902C98.3186 56.2902 86.991 62.9409 86.991 71.145C86.991 79.3491 98.3186 85.9998 112.292 85.9998Z" fill="url(#paint13_linear_100_48)"/>
<path opacity="0.4" d="M98.5964 62.8579C108.479 57.0591 124.496 57.0591 134.379 62.8579L134.736 63.0822C133.703 62.153 132.576 61.3368 131.375 60.6473C121.492 54.8378 105.476 54.8378 95.5927 60.6473C85.7097 66.4568 85.7307 75.5983 95.2356 81.4184C88.892 75.6623 90.0053 67.8985 98.5964 62.8579Z" fill="#0B1113"/>
<path d="M135.272 58.6183C123.362 51.4846 103.953 51.303 91.9168 58.2232C79.8808 65.1433 79.7863 76.538 91.6962 83.6718C103.606 90.8055 123.015 90.987 135.051 84.0669C147.087 77.1467 147.182 65.752 135.272 58.6183ZM131.375 81.6427C127.792 83.6445 123.875 84.9518 119.822 85.4979L119.36 83.9601C119.274 83.6535 119.092 83.3837 118.842 83.1912C118.592 82.9986 118.287 82.8937 117.974 82.8922H108.889C108.575 82.8937 108.271 82.9986 108.021 83.1912C107.771 83.3837 107.589 83.6535 107.503 83.9601L107.041 85.4979C102.989 84.9467 99.0725 83.6398 95.4877 81.6427C85.6047 75.8332 85.6047 66.4355 95.4877 60.6367C105.371 54.8378 121.387 54.8272 131.27 60.6367C141.153 66.4462 141.258 75.8439 131.375 81.6427Z" fill="url(#paint14_radial_100_48)"/>
<path d="M131.375 59.5474C121.492 53.7379 105.476 53.7379 95.5927 59.5474C90.4149 62.5803 87.9573 66.617 88.2409 70.6004C88.4614 66.9801 90.919 63.4026 95.5927 60.6473C105.476 54.8378 121.492 54.8378 131.375 60.6473C136.08 63.4026 138.538 66.9801 138.727 70.6004C139.011 66.617 136.553 62.5803 131.375 59.5474Z" fill="white"/>
<path d="M135.051 82.9669C123.015 89.8871 103.606 89.7162 91.6962 82.5718C86.0353 79.1865 83.0841 74.8187 82.853 70.4402C82.622 75.1818 85.5522 79.9981 91.6962 83.6718C103.606 90.8162 123.015 90.987 135.051 84.0669C141.353 80.436 144.377 75.5235 144.115 70.7499C143.894 75.2352 140.88 79.6137 135.051 82.9669Z" fill="white"/>
<path d="M116.209 84.8144H110.769C110.392 84.8144 110.086 85.1252 110.086 85.5086V85.6154C110.086 85.9987 110.392 86.3095 110.769 86.3095H116.209C116.586 86.3095 116.892 85.9987 116.892 85.6154V85.5086C116.892 85.1252 116.586 84.8144 116.209 84.8144Z" fill="#37359B"/>
<path d="M116.199 84.8465H110.769C110.588 84.8465 110.414 84.9196 110.286 85.0498C110.158 85.18 110.086 85.3565 110.086 85.5406V85.6367C110.081 85.7007 110.081 85.765 110.086 85.829C110.124 85.6822 110.208 85.5522 110.326 85.4594C110.444 85.3666 110.588 85.3163 110.737 85.3164H116.167C116.316 85.3163 116.461 85.3666 116.579 85.4594C116.697 85.5522 116.781 85.6822 116.819 85.829C116.829 85.7653 116.829 85.7004 116.819 85.6367V85.5406C116.819 85.3671 116.756 85.1996 116.641 85.0711C116.527 84.9426 116.369 84.8625 116.199 84.8465Z" fill="#F2B886"/>
<path opacity="0.5" d="M115.411 85.562C115.411 85.562 131.837 79.9661 125.189 60.7648C118.541 41.5636 105.581 35.722 110.801 20.376C110.801 20.376 102.629 32.8066 110.265 49.6157C117.9 66.4248 119.581 64.5026 119.486 72.544C119.511 75.2252 118.805 77.861 117.446 80.1589C116.087 82.4568 114.128 84.327 111.788 85.562H115.411Z" fill="white"/>
<path opacity="0.5" d="M116.85 23.0458C116.85 23.0458 115.149 11.5656 125.735 0C125.735 0 116.367 21.2623 119.434 31.7707C119.465 31.7707 116.987 25.0962 116.85 23.0458Z" fill="white"/>
</g>
<defs>
<linearGradient id="paint0_linear_100_48" x1="426.74" y1="287.666" x2="460.99" y2="287.666" gradientUnits="userSpaceOnUse">
<stop stop-color="#D8B1A2"/>
<stop offset="1" stop-color="white"/>
</linearGradient>
<linearGradient id="paint1_linear_100_48" x1="379.846" y1="239.93" x2="437.38" y2="239.93" gradientUnits="userSpaceOnUse">
<stop stop-color="#F2B886"/>
<stop offset="1" stop-color="#DAFFFD"/>
</linearGradient>
<linearGradient id="paint2_linear_100_48" x1="0.470444" y1="259.537" x2="57.9933" y2="259.537" gradientUnits="userSpaceOnUse">
<stop stop-color="#FDFFFF"/>
<stop offset="1" stop-color="#D7DBFD"/>
</linearGradient>
<linearGradient id="paint3_linear_100_48" x1="67.4457" y1="255.778" x2="374.5" y2="255.778" gradientUnits="userSpaceOnUse">
<stop stop-color="white"/>
<stop offset="1" stop-color="#D8B1A2"/>
</linearGradient>
<radialGradient id="paint4_radial_100_48" cx="0" cy="0" r="1" gradientUnits="userSpaceOnUse" gradientTransform="translate(237.053 24.6263) scale(234.524 238.467)">
<stop stop-color="white"/>
<stop offset="0.47" stop-color="#CACACA"/>
<stop offset="0.59" stop-color="#D8B1A2"/>
<stop offset="0.74" stop-color="#CFEAFA"/>
<stop offset="0.8" stop-color="#271515"/>
</radialGradient>
<radialGradient id="paint5_radial_100_48" cx="0" cy="0" r="1" gradientUnits="userSpaceOnUse" gradientTransform="translate(93.6077 216.126) scale(256.443 260.755)">
<stop stop-color="#E6DDD8"/>
<stop offset="0.47" stop-color="#E6D3C3"/>
<stop offset="0.57" stop-color="#F2FCFE"/>
<stop offset="0.68" stop-color="#D8B1A2"/>
<stop offset="0.74" stop-color="#D8B1A2"/>
</radialGradient>
<radialGradient id="paint6_radial_100_48" cx="0" cy="0" r="1" gradientUnits="userSpaceOnUse" gradientTransform="translate(117.197 163.787) scale(229.965 233.832)">
<stop stop-color="white"/>
<stop offset="0.34375" stop-color="#C5C5C5"/>
<stop offset="0.59" stop-color="white" stop-opacity="0.76"/>
<stop offset="0.73" stop-color="#C6C6C6"/>
<stop offset="1" stop-color="#DDD2CE"/>
</radialGradient>
<radialGradient id="paint7_radial_100_48" cx="0" cy="0" r="1" gradientUnits="userSpaceOnUse" gradientTransform="translate(174.488 74.3595) scale(234.566 238.51)">
<stop stop-color="#F2B886"/>
<stop offset="0.47" stop-color="#C7C7C7"/>
<stop offset="0.59" stop-color="#EAEAEA"/>
<stop offset="0.73" stop-color="#734D40"/>
<stop offset="1" stop-color="#D8B1A2"/>
</radialGradient>
<linearGradient id="paint8_linear_100_48" x1="200.272" y1="136.972" x2="388.227" y2="136.972" gradientUnits="userSpaceOnUse">
<stop stop-color="#271515"/>
<stop offset="1" stop-color="#F2B886"/>
</linearGradient>
<linearGradient id="paint9_linear_100_48" x1="72.1193" y1="163.115" x2="152.758" y2="163.115" gradientUnits="userSpaceOnUse">
<stop stop-color="#734D40"/>
<stop offset="1" stop-color="white"/>
</linearGradient>
<radialGradient id="paint10_radial_100_48" cx="0" cy="0" r="1" gradientUnits="userSpaceOnUse" gradientTransform="translate(79.2716 96.2412) scale(173.661 176.581)">
<stop stop-color="white"/>
<stop offset="0.15" stop-color="#D8B1A2"/>
<stop offset="0.41" stop-color="#D8B1A2"/>
<stop offset="0.527919" stop-color="#734D40"/>
</radialGradient>
<linearGradient id="paint11_linear_100_48" x1="82.3384" y1="74.3595" x2="144.629" y2="74.3595" gradientUnits="userSpaceOnUse">
<stop stop-color="white"/>
<stop offset="0.25" stop-color="#D8B1A2"/>
<stop offset="0.56" stop-color="#271515"/>
</linearGradient>
<linearGradient id="paint12_linear_100_48" x1="88.1883" y1="71.145" x2="138.79" y2="71.145" gradientUnits="userSpaceOnUse">
<stop stop-color="#734D40"/>
<stop offset="1" stop-color="#271515"/>
</linearGradient>
<linearGradient id="paint13_linear_100_48" x1="86.991" y1="71.145" x2="137.593" y2="71.145" gradientUnits="userSpaceOnUse">
<stop stop-color="white"/>
<stop offset="1" stop-color="#F2B886"/>
</linearGradient>
<radialGradient id="paint14_radial_100_48" cx="0" cy="0" r="1" gradientUnits="userSpaceOnUse" gradientTransform="translate(74.5664 56.4397) scale(113.596 115.507)">
<stop stop-color="white"/>
<stop offset="0.25" stop-color="#D8B1A2"/>
<stop offset="0.74" stop-color="#734D40"/>
</radialGradient>
<clipPath id="clip0_100_48">
<rect width="460.53" height="382" fill="white" transform="translate(0.470398)"/>
</clipPath>
</defs>
</svg>
