<svg width="30" height="30" viewBox="0 0 30 30" fill="none" xmlns="http://www.w3.org/2000/svg">
<g clip-path="url(#clip0_100_1393)">
<path d="M28.75 9.79997L28.55 9.53747C28.3708 9.28549 28.1321 9.08173 27.8552 8.94434C27.5782 8.80694 27.2715 8.74017 26.9625 8.74997H25V9.99997C25 11.6576 24.3415 13.2473 23.1694 14.4194C21.9973 15.5915 20.4076 16.25 18.75 16.25H11.25C10.2554 16.25 9.30161 16.6451 8.59835 17.3483C7.89509 18.0516 7.5 19.0054 7.5 20V26.9625C7.50038 27.261 7.57204 27.5551 7.70901 27.8204C7.84599 28.0856 8.04431 28.3143 8.2875 28.4875C9.2625 29.175 11.25 30 15 30C18.75 30 20.7375 29.175 21.7125 28.4875C21.9542 28.3129 22.1515 28.0839 22.2883 27.819C22.4251 27.554 22.4976 27.2606 22.5 26.9625V23.125H18.4375C18.1889 23.125 17.9504 23.0262 17.7746 22.8504C17.5988 22.6746 17.5 22.4361 17.5 22.1875C17.5 21.9388 17.5988 21.7004 17.7746 21.5246C17.9504 21.3487 18.1889 21.25 18.4375 21.25H26.9625C27.261 21.2496 27.5551 21.1779 27.8204 21.041C28.0856 20.904 28.3144 20.7057 28.4875 20.4625L28.6875 20.2C29.275 19.45 30 18.5125 30 15C30 11.4875 29.275 10.55 28.75 9.79997ZM17.5 25C17.7472 25 17.9889 25.0733 18.1945 25.2106C18.4 25.348 18.5602 25.5432 18.6549 25.7716C18.7495 26 18.7742 26.2514 18.726 26.4938C18.6778 26.7363 18.5587 26.959 18.3839 27.1339C18.2091 27.3087 17.9863 27.4277 17.7439 27.4759C17.5014 27.5242 17.2501 27.4994 17.0216 27.4048C16.7932 27.3102 16.598 27.15 16.4607 26.9444C16.3233 26.7389 16.25 26.4972 16.25 26.25C16.25 25.9184 16.3817 25.6005 16.6161 25.3661C16.8505 25.1317 17.1685 25 17.5 25Z" fill="#A56037"/>
<path d="M5 20C5 18.3424 5.65848 16.7527 6.83058 15.5806C8.00268 14.4085 9.5924 13.75 11.25 13.75H18.75C19.7446 13.75 20.6984 13.3549 21.4017 12.6517C22.1049 11.9484 22.5 10.9946 22.5 10V3.0375C22.4996 2.73723 22.428 2.44133 22.2911 2.17408C22.1542 1.90682 21.9559 1.67582 21.7125 1.5C20.7375 0.8125 18.75 0 15 0C11.25 0 9.2625 0.825 8.2875 1.5125C8.04431 1.68565 7.84599 1.91435 7.70901 2.1796C7.57204 2.44485 7.50038 2.73897 7.5 3.0375V6.875H11.5625C11.8111 6.875 12.0496 6.97377 12.2254 7.14959C12.4012 7.3254 12.5 7.56386 12.5 7.8125C12.5 8.06114 12.4012 8.2996 12.2254 8.47541C12.0496 8.65123 11.8111 8.75 11.5625 8.75H3.0375C2.73897 8.75038 2.44485 8.82204 2.1796 8.95901C1.91435 9.09599 1.68565 9.29431 1.5125 9.5375L1.3125 9.8C0.725 10.55 0 11.4875 0 15C0 18.5125 0.725 19.45 1.3125 20.2L1.5125 20.4625C1.68565 20.7057 1.91435 20.904 2.1796 21.041C2.44485 21.178 2.73897 21.2496 3.0375 21.25H5V20ZM11.25 3.75C11.25 3.50277 11.3233 3.2611 11.4607 3.05554C11.598 2.84998 11.7932 2.68976 12.0216 2.59515C12.2501 2.50054 12.5014 2.47579 12.7439 2.52402C12.9863 2.57225 13.2091 2.6913 13.3839 2.86612C13.5587 3.04093 13.6778 3.26366 13.726 3.50614C13.7742 3.74861 13.7495 3.99995 13.6549 4.22835C13.5602 4.45676 13.4 4.65199 13.1945 4.78934C12.9889 4.92669 12.7472 5 12.5 5C12.1685 5 11.8505 4.8683 11.6161 4.63388C11.3817 4.39946 11.25 4.08152 11.25 3.75Z" fill="#A56037"/>
</g>
<defs>
<clipPath id="clip0_100_1393">
<rect width="30" height="30" fill="white"/>
</clipPath>
</defs>
</svg>
