<svg width="30" height="30" viewBox="0 0 30 30" fill="none" xmlns="http://www.w3.org/2000/svg">
<g clip-path="url(#clip0_100_1397)">
<path d="M15.3875 3.6125C20.5625 3.6125 24.725 6.775 24.55 10.625C24.5512 10.7951 24.6133 10.9592 24.725 11.0875C24.8471 11.2029 25.0071 11.2696 25.175 11.275H27.5C27.6624 11.275 27.8182 11.2105 27.9331 11.0956C28.048 10.9807 28.1125 10.8249 28.1125 10.6625C28.3625 4.8 22.0125 0 14.125 0C6.2375 0 0.0625 4.65 0.0625 10.3875C0.0625 15.8625 5.775 20.3875 13.025 20.75C13.1099 20.7538 13.1948 20.7403 13.2743 20.7102C13.3538 20.6801 13.4264 20.6341 13.4875 20.575C13.5492 20.5198 13.5988 20.4525 13.6333 20.3772C13.6677 20.3019 13.6861 20.2203 13.6875 20.1375V17.6375C13.6875 17.4901 13.6364 17.3473 13.543 17.2334C13.4495 17.1195 13.3195 17.0414 13.175 17.0125C9.2 16.25 6.25 13.5875 6.25 10.3875C6.25 6.65 10.325 3.6125 15.3875 3.6125Z" fill="#A56037"/>
<path d="M26.1625 23.5C27.3812 23.1331 28.4271 22.34 29.1092 21.2655C29.7913 20.191 30.064 18.907 29.8774 17.6481C29.6908 16.3891 29.0575 15.2394 28.0931 14.4089C27.1287 13.5784 25.8977 13.1227 24.625 13.125H16.25C16.0842 13.125 15.9253 13.1909 15.8081 13.3081C15.6908 13.4253 15.625 13.5842 15.625 13.75V29.375C15.625 29.5408 15.6908 29.6997 15.8081 29.8169C15.9253 29.9342 16.0842 30 16.25 30H19.375C19.5408 30 19.6997 29.9342 19.8169 29.8169C19.9342 29.6997 20 29.5408 20 29.375V23.75H20.625C21.8343 24.1527 22.8951 24.9086 23.6705 25.9202C24.446 26.9318 24.9003 28.1526 24.975 29.425C24.9876 29.582 25.059 29.7284 25.1748 29.835C25.2907 29.9416 25.4425 30.0005 25.6 30H29.15C29.2488 29.9993 29.3461 29.9751 29.4338 29.9295C29.5215 29.8839 29.5971 29.8181 29.6545 29.7376C29.7118 29.657 29.7492 29.5641 29.7637 29.4663C29.7781 29.3685 29.7691 29.2687 29.7375 29.175C29.175 27.675 27.95 24.5625 26.1625 23.5ZM23.375 20.625H20V16.25H23.375C23.9552 16.25 24.5116 16.4805 24.9218 16.8907C25.332 17.3009 25.5625 17.8573 25.5625 18.4375C25.5625 19.0177 25.332 19.5741 24.9218 19.9843C24.5116 20.3945 23.9552 20.625 23.375 20.625Z" fill="#A56037"/>
</g>
<defs>
<clipPath id="clip0_100_1397">
<rect width="30" height="30" fill="white"/>
</clipPath>
</defs>
</svg>
