<svg width="24" height="24" viewBox="0 0 24 24" fill="none" xmlns="http://www.w3.org/2000/svg">
<g clip-path="url(#clip0_100_1405)">
<path d="M12 9.63C11.7683 9.62999 11.546 9.72133 11.3813 9.8842C11.2165 10.0471 11.1226 10.2684 11.12 10.5V13C11.12 13.2334 11.2127 13.4572 11.3777 13.6223C11.5428 13.7873 11.7666 13.88 12 13.88C12.2334 13.88 12.4572 13.7873 12.6223 13.6223C12.7873 13.4572 12.88 13.2334 12.88 13V10.5C12.8774 10.2684 12.7835 10.0471 12.6187 9.8842C12.454 9.72133 12.2317 9.62999 12 9.63Z" fill="#A56037"/>
<path d="M22.5 4.5H1.5C1.10218 4.5 0.720644 4.65804 0.43934 4.93934C0.158035 5.22064 0 5.60218 0 6L0 18C0 18.3978 0.158035 18.7794 0.43934 19.0607C0.720644 19.342 1.10218 19.5 1.5 19.5H22.5C22.8978 19.5 23.2794 19.342 23.5607 19.0607C23.842 18.7794 24 18.3978 24 18V6C24 5.60218 23.842 5.22064 23.5607 4.93934C23.2794 4.65804 22.8978 4.5 22.5 4.5ZM6.43 10.87L8.27 12.09C8.60979 12.3229 8.86662 12.6579 9.00329 13.0465C9.13997 13.4351 9.1494 13.8572 9.03021 14.2515C8.91102 14.6458 8.6694 14.992 8.34035 15.2398C8.0113 15.4876 7.6119 15.6243 7.2 15.63H5.5C5.34785 15.6107 5.20796 15.5366 5.10656 15.4215C5.00516 15.3065 4.94921 15.1584 4.94921 15.005C4.94921 14.8516 5.00516 14.7035 5.10656 14.5885C5.20796 14.4734 5.34785 14.3993 5.5 14.38H7.2C7.34653 14.3798 7.48908 14.3323 7.60643 14.2446C7.72378 14.1568 7.80964 14.0335 7.85123 13.893C7.89282 13.7525 7.88791 13.6023 7.83723 13.4648C7.78656 13.3273 7.69283 13.2099 7.57 13.13L5.73 11.91C5.46742 11.7317 5.25261 11.4916 5.10441 11.2109C4.95621 10.9302 4.87916 10.6174 4.88 10.3C4.88 9.79078 5.08229 9.30242 5.44236 8.94236C5.80242 8.58229 6.29078 8.38 6.8 8.38H8.5C8.65215 8.39928 8.79204 8.47341 8.89344 8.58847C8.99484 8.70353 9.05079 8.85163 9.05079 9.005C9.05079 9.15837 8.99484 9.30647 8.89344 9.42153C8.79204 9.53659 8.65215 9.61072 8.5 9.63H6.8C6.62137 9.62998 6.44991 9.70025 6.32267 9.82562C6.19543 9.95099 6.12263 10.1214 6.12 10.3C6.12098 10.4131 6.14976 10.5243 6.20382 10.6237C6.25788 10.7231 6.33555 10.8077 6.43 10.87ZM14.12 13C14.1177 13.3558 14.0247 13.705 13.8497 14.0148C13.6747 14.3245 13.4235 14.5845 13.12 14.77C13.1076 14.7793 13.0975 14.7914 13.0906 14.8053C13.0836 14.8192 13.08 14.8345 13.08 14.85C13.08 14.8655 13.0836 14.8808 13.0906 14.8947C13.0975 14.9086 13.1076 14.9207 13.12 14.93L13.85 15.51C13.9769 15.6155 14.0582 15.7659 14.0768 15.9299C14.0954 16.0939 14.05 16.2587 13.95 16.39C13.846 16.5191 13.6953 16.602 13.5305 16.6207C13.3658 16.6394 13.2003 16.5925 13.07 16.49L11.18 15C10.7885 14.8344 10.4554 14.5555 10.2238 14.199C9.9921 13.8426 9.87237 13.425 9.88 13V10.5C9.88 9.93774 10.1034 9.39851 10.5009 9.00093C10.8985 8.60336 11.4377 8.38 12 8.38C12.5623 8.38 13.1015 8.60336 13.4991 9.00093C13.8966 9.39851 14.12 9.93774 14.12 10.5V13ZM18.5 15.63H16.5C16.2864 15.63 16.0749 15.5878 15.8777 15.5057C15.6805 15.4237 15.5015 15.3035 15.3509 15.152C15.2004 15.0005 15.0813 14.8207 15.0004 14.623C14.9196 14.4253 14.8787 14.2136 14.88 14V9C14.88 8.83557 14.9453 8.67787 15.0616 8.56159C15.1779 8.44532 15.3356 8.38 15.5 8.38C15.6644 8.38 15.8221 8.44532 15.9384 8.56159C16.0547 8.67787 16.12 8.83557 16.12 9V14C16.12 14.1008 16.16 14.1974 16.2313 14.2687C16.3026 14.34 16.3992 14.38 16.5 14.38H18.5C18.6521 14.3993 18.792 14.4734 18.8934 14.5885C18.9948 14.7035 19.0508 14.8516 19.0508 15.005C19.0508 15.1584 18.9948 15.3065 18.8934 15.4215C18.792 15.5366 18.6521 15.6107 18.5 15.63Z" fill="#A56037"/>
</g>
<defs>
<clipPath id="clip0_100_1405">
<rect width="24" height="24" fill="white"/>
</clipPath>
</defs>
</svg>
